<svg class="plot-d6a7b5" fill="currentColor" font-family="system-ui, sans-serif" font-size="10" text-anchor="middle" width="640" height="500" viewBox="0 0 640 500" style="min-width: 100%;"><style>:where(.plot-d6a7b5) {
  --plot-background: white;
  display: block;
  height: auto;
  height: intrinsic;
  max-width: 100%;
}
:where(.plot-d6a7b5 text),
:where(.plot-d6a7b5 tspan) {
  white-space: pre;
}</style><g aria-label="fx-axis tick label" transform="translate(0.5,12.964101615137755)"><g text-anchor="end" transform="translate(1,0)"><text y="0.32em" transform="translate(64,400) rotate(-30)">N-VA</text></g><g text-anchor="end" transform="translate(54,0)"><text y="0.32em" transform="translate(64,400) rotate(-30)">Groen</text></g><g text-anchor="end" transform="translate(107,0)"><text y="0.32em" transform="translate(64,400) rotate(-30)">Vooruit</text></g><g text-anchor="end" transform="translate(160,0)"><text y="0.32em" transform="translate(64,400) rotate(-30)">CD&amp;V</text></g><g text-anchor="end" transform="translate(213,0)"><text y="0.32em" transform="translate(64,400) rotate(-30)">Vlaams Belang</text></g><g text-anchor="end" transform="translate(266,0)"><text y="0.32em" transform="translate(64,400) rotate(-30)">Open VLD</text></g><g text-anchor="end" transform="translate(319,0)"><text y="0.32em" transform="translate(64,400) rotate(-30)">PVDA</text></g><g text-anchor="end" transform="translate(372,0)"><text y="0.32em" transform="translate(64,400) rotate(-30)">Niet van plan te gaan stemmen</text></g><g text-anchor="end" transform="translate(425,0)"><text y="0.32em" transform="translate(64,400) rotate(-30)">Voor U</text></g><g text-anchor="end" transform="translate(478,0)"><text y="0.32em" transform="translate(64,400) rotate(-30)">Ik stem blanco</text></g><g text-anchor="end" transform="translate(531,0)"><text y="0.32em" transform="translate(64,400) rotate(-30)">Partij Blanco</text></g></g><g aria-label="fx-axis label" transform="translate(0.5,97.5)"><text transform="translate(330,400)">Stemkeuze</text></g><g aria-label="y-grid" aria-hidden="true" transform="translate(0,0.5)"><g stroke="currentColor" stroke-opacity="0.1" transform="translate(1,0)"><line x1="40" x2="88" y1="400" y2="400"></line><line x1="40" x2="88" y1="374.2372881355932" y2="374.2372881355932"></line><line x1="40" x2="88" y1="348.4745762711865" y2="348.4745762711865"></line><line x1="40" x2="88" y1="322.7118644067796" y2="322.7118644067796"></line><line x1="40" x2="88" y1="296.9491525423729" y2="296.9491525423729"></line><line x1="40" x2="88" y1="271.1864406779661" y2="271.1864406779661"></line><line x1="40" x2="88" y1="245.4237288135593" y2="245.4237288135593"></line><line x1="40" x2="88" y1="219.6610169491525" y2="219.6610169491525"></line><line x1="40" x2="88" y1="193.89830508474577" y2="193.89830508474577"></line><line x1="40" x2="88" y1="168.135593220339" y2="168.135593220339"></line><line x1="40" x2="88" y1="142.3728813559322" y2="142.3728813559322"></line><line x1="40" x2="88" y1="116.61016949152543" y2="116.61016949152543"></line><line x1="40" x2="88" y1="90.84745762711863" y2="90.84745762711863"></line><line x1="40" x2="88" y1="65.08474576271188" y2="65.08474576271188"></line><line x1="40" x2="88" y1="39.32203389830507" y2="39.32203389830507"></line></g><g stroke="currentColor" stroke-opacity="0.1" transform="translate(54,0)"><line x1="40" x2="88" y1="400" y2="400"></line><line x1="40" x2="88" y1="374.2372881355932" y2="374.2372881355932"></line><line x1="40" x2="88" y1="348.4745762711865" y2="348.4745762711865"></line><line x1="40" x2="88" y1="322.7118644067796" y2="322.7118644067796"></line><line x1="40" x2="88" y1="296.9491525423729" y2="296.9491525423729"></line><line x1="40" x2="88" y1="271.1864406779661" y2="271.1864406779661"></line><line x1="40" x2="88" y1="245.4237288135593" y2="245.4237288135593"></line><line x1="40" x2="88" y1="219.6610169491525" y2="219.6610169491525"></line><line x1="40" x2="88" y1="193.89830508474577" y2="193.89830508474577"></line><line x1="40" x2="88" y1="168.135593220339" y2="168.135593220339"></line><line x1="40" x2="88" y1="142.3728813559322" y2="142.3728813559322"></line><line x1="40" x2="88" y1="116.61016949152543" y2="116.61016949152543"></line><line x1="40" x2="88" y1="90.84745762711863" y2="90.84745762711863"></line><line x1="40" x2="88" y1="65.08474576271188" y2="65.08474576271188"></line><line x1="40" x2="88" y1="39.32203389830507" y2="39.32203389830507"></line></g><g stroke="currentColor" stroke-opacity="0.1" transform="translate(107,0)"><line x1="40" x2="88" y1="400" y2="400"></line><line x1="40" x2="88" y1="374.2372881355932" y2="374.2372881355932"></line><line x1="40" x2="88" y1="348.4745762711865" y2="348.4745762711865"></line><line x1="40" x2="88" y1="322.7118644067796" y2="322.7118644067796"></line><line x1="40" x2="88" y1="296.9491525423729" y2="296.9491525423729"></line><line x1="40" x2="88" y1="271.1864406779661" y2="271.1864406779661"></line><line x1="40" x2="88" y1="245.4237288135593" y2="245.4237288135593"></line><line x1="40" x2="88" y1="219.6610169491525" y2="219.6610169491525"></line><line x1="40" x2="88" y1="193.89830508474577" y2="193.89830508474577"></line><line x1="40" x2="88" y1="168.135593220339" y2="168.135593220339"></line><line x1="40" x2="88" y1="142.3728813559322" y2="142.3728813559322"></line><line x1="40" x2="88" y1="116.61016949152543" y2="116.61016949152543"></line><line x1="40" x2="88" y1="90.84745762711863" y2="90.84745762711863"></line><line x1="40" x2="88" y1="65.08474576271188" y2="65.08474576271188"></line><line x1="40" x2="88" y1="39.32203389830507" y2="39.32203389830507"></line></g><g stroke="currentColor" stroke-opacity="0.1" transform="translate(160,0)"><line x1="40" x2="88" y1="400" y2="400"></line><line x1="40" x2="88" y1="374.2372881355932" y2="374.2372881355932"></line><line x1="40" x2="88" y1="348.4745762711865" y2="348.4745762711865"></line><line x1="40" x2="88" y1="322.7118644067796" y2="322.7118644067796"></line><line x1="40" x2="88" y1="296.9491525423729" y2="296.9491525423729"></line><line x1="40" x2="88" y1="271.1864406779661" y2="271.1864406779661"></line><line x1="40" x2="88" y1="245.4237288135593" y2="245.4237288135593"></line><line x1="40" x2="88" y1="219.6610169491525" y2="219.6610169491525"></line><line x1="40" x2="88" y1="193.89830508474577" y2="193.89830508474577"></line><line x1="40" x2="88" y1="168.135593220339" y2="168.135593220339"></line><line x1="40" x2="88" y1="142.3728813559322" y2="142.3728813559322"></line><line x1="40" x2="88" y1="116.61016949152543" y2="116.61016949152543"></line><line x1="40" x2="88" y1="90.84745762711863" y2="90.84745762711863"></line><line x1="40" x2="88" y1="65.08474576271188" y2="65.08474576271188"></line><line x1="40" x2="88" y1="39.32203389830507" y2="39.32203389830507"></line></g><g stroke="currentColor" stroke-opacity="0.1" transform="translate(213,0)"><line x1="40" x2="88" y1="400" y2="400"></line><line x1="40" x2="88" y1="374.2372881355932" y2="374.2372881355932"></line><line x1="40" x2="88" y1="348.4745762711865" y2="348.4745762711865"></line><line x1="40" x2="88" y1="322.7118644067796" y2="322.7118644067796"></line><line x1="40" x2="88" y1="296.9491525423729" y2="296.9491525423729"></line><line x1="40" x2="88" y1="271.1864406779661" y2="271.1864406779661"></line><line x1="40" x2="88" y1="245.4237288135593" y2="245.4237288135593"></line><line x1="40" x2="88" y1="219.6610169491525" y2="219.6610169491525"></line><line x1="40" x2="88" y1="193.89830508474577" y2="193.89830508474577"></line><line x1="40" x2="88" y1="168.135593220339" y2="168.135593220339"></line><line x1="40" x2="88" y1="142.3728813559322" y2="142.3728813559322"></line><line x1="40" x2="88" y1="116.61016949152543" y2="116.61016949152543"></line><line x1="40" x2="88" y1="90.84745762711863" y2="90.84745762711863"></line><line x1="40" x2="88" y1="65.08474576271188" y2="65.08474576271188"></line><line x1="40" x2="88" y1="39.32203389830507" y2="39.32203389830507"></line></g><g stroke="currentColor" stroke-opacity="0.1" transform="translate(266,0)"><line x1="40" x2="88" y1="400" y2="400"></line><line x1="40" x2="88" y1="374.2372881355932" y2="374.2372881355932"></line><line x1="40" x2="88" y1="348.4745762711865" y2="348.4745762711865"></line><line x1="40" x2="88" y1="322.7118644067796" y2="322.7118644067796"></line><line x1="40" x2="88" y1="296.9491525423729" y2="296.9491525423729"></line><line x1="40" x2="88" y1="271.1864406779661" y2="271.1864406779661"></line><line x1="40" x2="88" y1="245.4237288135593" y2="245.4237288135593"></line><line x1="40" x2="88" y1="219.6610169491525" y2="219.6610169491525"></line><line x1="40" x2="88" y1="193.89830508474577" y2="193.89830508474577"></line><line x1="40" x2="88" y1="168.135593220339" y2="168.135593220339"></line><line x1="40" x2="88" y1="142.3728813559322" y2="142.3728813559322"></line><line x1="40" x2="88" y1="116.61016949152543" y2="116.61016949152543"></line><line x1="40" x2="88" y1="90.84745762711863" y2="90.84745762711863"></line><line x1="40" x2="88" y1="65.08474576271188" y2="65.08474576271188"></line><line x1="40" x2="88" y1="39.32203389830507" y2="39.32203389830507"></line></g><g stroke="currentColor" stroke-opacity="0.1" transform="translate(319,0)"><line x1="40" x2="88" y1="400" y2="400"></line><line x1="40" x2="88" y1="374.2372881355932" y2="374.2372881355932"></line><line x1="40" x2="88" y1="348.4745762711865" y2="348.4745762711865"></line><line x1="40" x2="88" y1="322.7118644067796" y2="322.7118644067796"></line><line x1="40" x2="88" y1="296.9491525423729" y2="296.9491525423729"></line><line x1="40" x2="88" y1="271.1864406779661" y2="271.1864406779661"></line><line x1="40" x2="88" y1="245.4237288135593" y2="245.4237288135593"></line><line x1="40" x2="88" y1="219.6610169491525" y2="219.6610169491525"></line><line x1="40" x2="88" y1="193.89830508474577" y2="193.89830508474577"></line><line x1="40" x2="88" y1="168.135593220339" y2="168.135593220339"></line><line x1="40" x2="88" y1="142.3728813559322" y2="142.3728813559322"></line><line x1="40" x2="88" y1="116.61016949152543" y2="116.61016949152543"></line><line x1="40" x2="88" y1="90.84745762711863" y2="90.84745762711863"></line><line x1="40" x2="88" y1="65.08474576271188" y2="65.08474576271188"></line><line x1="40" x2="88" y1="39.32203389830507" y2="39.32203389830507"></line></g><g stroke="currentColor" stroke-opacity="0.1" transform="translate(372,0)"><line x1="40" x2="88" y1="400" y2="400"></line><line x1="40" x2="88" y1="374.2372881355932" y2="374.2372881355932"></line><line x1="40" x2="88" y1="348.4745762711865" y2="348.4745762711865"></line><line x1="40" x2="88" y1="322.7118644067796" y2="322.7118644067796"></line><line x1="40" x2="88" y1="296.9491525423729" y2="296.9491525423729"></line><line x1="40" x2="88" y1="271.1864406779661" y2="271.1864406779661"></line><line x1="40" x2="88" y1="245.4237288135593" y2="245.4237288135593"></line><line x1="40" x2="88" y1="219.6610169491525" y2="219.6610169491525"></line><line x1="40" x2="88" y1="193.89830508474577" y2="193.89830508474577"></line><line x1="40" x2="88" y1="168.135593220339" y2="168.135593220339"></line><line x1="40" x2="88" y1="142.3728813559322" y2="142.3728813559322"></line><line x1="40" x2="88" y1="116.61016949152543" y2="116.61016949152543"></line><line x1="40" x2="88" y1="90.84745762711863" y2="90.84745762711863"></line><line x1="40" x2="88" y1="65.08474576271188" y2="65.08474576271188"></line><line x1="40" x2="88" y1="39.32203389830507" y2="39.32203389830507"></line></g><g stroke="currentColor" stroke-opacity="0.1" transform="translate(425,0)"><line x1="40" x2="88" y1="400" y2="400"></line><line x1="40" x2="88" y1="374.2372881355932" y2="374.2372881355932"></line><line x1="40" x2="88" y1="348.4745762711865" y2="348.4745762711865"></line><line x1="40" x2="88" y1="322.7118644067796" y2="322.7118644067796"></line><line x1="40" x2="88" y1="296.9491525423729" y2="296.9491525423729"></line><line x1="40" x2="88" y1="271.1864406779661" y2="271.1864406779661"></line><line x1="40" x2="88" y1="245.4237288135593" y2="245.4237288135593"></line><line x1="40" x2="88" y1="219.6610169491525" y2="219.6610169491525"></line><line x1="40" x2="88" y1="193.89830508474577" y2="193.89830508474577"></line><line x1="40" x2="88" y1="168.135593220339" y2="168.135593220339"></line><line x1="40" x2="88" y1="142.3728813559322" y2="142.3728813559322"></line><line x1="40" x2="88" y1="116.61016949152543" y2="116.61016949152543"></line><line x1="40" x2="88" y1="90.84745762711863" y2="90.84745762711863"></line><line x1="40" x2="88" y1="65.08474576271188" y2="65.08474576271188"></line><line x1="40" x2="88" y1="39.32203389830507" y2="39.32203389830507"></line></g><g stroke="currentColor" stroke-opacity="0.1" transform="translate(478,0)"><line x1="40" x2="88" y1="400" y2="400"></line><line x1="40" x2="88" y1="374.2372881355932" y2="374.2372881355932"></line><line x1="40" x2="88" y1="348.4745762711865" y2="348.4745762711865"></line><line x1="40" x2="88" y1="322.7118644067796" y2="322.7118644067796"></line><line x1="40" x2="88" y1="296.9491525423729" y2="296.9491525423729"></line><line x1="40" x2="88" y1="271.1864406779661" y2="271.1864406779661"></line><line x1="40" x2="88" y1="245.4237288135593" y2="245.4237288135593"></line><line x1="40" x2="88" y1="219.6610169491525" y2="219.6610169491525"></line><line x1="40" x2="88" y1="193.89830508474577" y2="193.89830508474577"></line><line x1="40" x2="88" y1="168.135593220339" y2="168.135593220339"></line><line x1="40" x2="88" y1="142.3728813559322" y2="142.3728813559322"></line><line x1="40" x2="88" y1="116.61016949152543" y2="116.61016949152543"></line><line x1="40" x2="88" y1="90.84745762711863" y2="90.84745762711863"></line><line x1="40" x2="88" y1="65.08474576271188" y2="65.08474576271188"></line><line x1="40" x2="88" y1="39.32203389830507" y2="39.32203389830507"></line></g><g stroke="currentColor" stroke-opacity="0.1" transform="translate(531,0)"><line x1="40" x2="88" y1="400" y2="400"></line><line x1="40" x2="88" y1="374.2372881355932" y2="374.2372881355932"></line><line x1="40" x2="88" y1="348.4745762711865" y2="348.4745762711865"></line><line x1="40" x2="88" y1="322.7118644067796" y2="322.7118644067796"></line><line x1="40" x2="88" y1="296.9491525423729" y2="296.9491525423729"></line><line x1="40" x2="88" y1="271.1864406779661" y2="271.1864406779661"></line><line x1="40" x2="88" y1="245.4237288135593" y2="245.4237288135593"></line><line x1="40" x2="88" y1="219.6610169491525" y2="219.6610169491525"></line><line x1="40" x2="88" y1="193.89830508474577" y2="193.89830508474577"></line><line x1="40" x2="88" y1="168.135593220339" y2="168.135593220339"></line><line x1="40" x2="88" y1="142.3728813559322" y2="142.3728813559322"></line><line x1="40" x2="88" y1="116.61016949152543" y2="116.61016949152543"></line><line x1="40" x2="88" y1="90.84745762711863" y2="90.84745762711863"></line><line x1="40" x2="88" y1="65.08474576271188" y2="65.08474576271188"></line><line x1="40" x2="88" y1="39.32203389830507" y2="39.32203389830507"></line></g></g><g aria-label="y-axis tick" aria-hidden="true" transform="translate(0,0.5)"><g fill="none" stroke="currentColor" transform="translate(1,0)"><path transform="translate(40,400)" d="M0,0L-6,0"></path><path transform="translate(40,374.2372881355932)" d="M0,0L-6,0"></path><path transform="translate(40,348.4745762711865)" d="M0,0L-6,0"></path><path transform="translate(40,322.7118644067796)" d="M0,0L-6,0"></path><path transform="translate(40,296.9491525423729)" d="M0,0L-6,0"></path><path transform="translate(40,271.1864406779661)" d="M0,0L-6,0"></path><path transform="translate(40,245.4237288135593)" d="M0,0L-6,0"></path><path transform="translate(40,219.6610169491525)" d="M0,0L-6,0"></path><path transform="translate(40,193.89830508474577)" d="M0,0L-6,0"></path><path transform="translate(40,168.135593220339)" d="M0,0L-6,0"></path><path transform="translate(40,142.3728813559322)" d="M0,0L-6,0"></path><path transform="translate(40,116.61016949152543)" d="M0,0L-6,0"></path><path transform="translate(40,90.84745762711863)" d="M0,0L-6,0"></path><path transform="translate(40,65.08474576271188)" d="M0,0L-6,0"></path><path transform="translate(40,39.32203389830507)" d="M0,0L-6,0"></path></g></g><g aria-label="y-axis tick label" transform="translate(-8.5,0.5)"><g text-anchor="end" font-variant="tabular-nums" transform="translate(1,0)"><text y="0.32em" transform="translate(40,400)">0</text><text y="0.32em" transform="translate(40,374.2372881355932)">2</text><text y="0.32em" transform="translate(40,348.4745762711865)">4</text><text y="0.32em" transform="translate(40,322.7118644067796)">6</text><text y="0.32em" transform="translate(40,296.9491525423729)">8</text><text y="0.32em" transform="translate(40,271.1864406779661)">10</text><text y="0.32em" transform="translate(40,245.4237288135593)">12</text><text y="0.32em" transform="translate(40,219.6610169491525)">14</text><text y="0.32em" transform="translate(40,193.89830508474577)">16</text><text y="0.32em" transform="translate(40,168.135593220339)">18</text><text y="0.32em" transform="translate(40,142.3728813559322)">20</text><text y="0.32em" transform="translate(40,116.61016949152543)">22</text><text y="0.32em" transform="translate(40,90.84745762711863)">24</text><text y="0.32em" transform="translate(40,65.08474576271188)">26</text><text y="0.32em" transform="translate(40,39.32203389830507)">28</text></g></g><g aria-label="bar"><g transform="translate(1,0)"><rect x="43" width="20" y="93.42372881355934" height="306.57627118644064" fill="#ffe7a6"></rect><rect x="65" width="20" y="118.16444880235325" height="281.83555119764674" fill="#fabe19"></rect></g><g transform="translate(54,0)"><rect x="43" width="20" y="20" height="380" fill="#8bccad"></rect><rect x="65" width="20" y="170.69057290937107" height="229.30942709062893" fill="#02ad5b"></rect></g><g transform="translate(107,0)"><rect x="43" width="20" y="333.0169491525424" height="66.9830508474576" fill="#c97569"></rect><rect x="65" width="20" y="175.41018816827753" height="224.58981183172247" fill="#cb1a01"></rect></g><g transform="translate(160,0)"><rect x="43" width="20" y="223.52542372881356" height="176.47457627118644" fill="#f2a474"></rect><rect x="65" width="20" y="259.1567446421067" height="140.84325535789333" fill="#ff6000"></rect></g><g transform="translate(213,0)"><rect x="43" width="20" y="324" height="76" fill="#dbc87b"></rect><rect x="65" width="20" y="268.02110472988744" height="131.97889527011256" fill="#ffcc00"></rect></g><g transform="translate(266,0)"><rect x="43" width="20" y="196.47457627118644" height="203.52542372881356" fill="#606794"></rect><rect x="65" width="20" y="271.6974366157726" height="128.30256338422743" fill="#29347e"></rect></g><g transform="translate(319,0)"><rect x="43" width="20" y="356.2033898305085" height="43.79661016949149" fill="#de8f8a"></rect><rect x="65" width="20" y="284.9052621749077" height="115.0947378250923" fill="#ef4135"></rect></g><g transform="translate(372,0)"><rect x="65" width="20" y="385.67791940981465" height="14.322080590185351" fill="#8f8f8f"></rect></g><g transform="translate(425,0)"><rect x="65" width="20" y="387.05476957557084" height="12.945230424429155" fill="#df0cb9"></rect></g><g transform="translate(478,0)"><rect x="43" width="20" y="375.52542372881356" height="24.474576271186436" fill="#c3c3c3"></rect><rect x="65" width="20" y="393.7119110986599" height="6.288088901340075" fill="#8f8f8f"></rect></g><g transform="translate(531,0)"><rect x="65" width="20" y="396.4585142643694" height="3.5414857356306015" fill="#b32d00"></rect></g></g><g aria-label="image" transform="translate(0.5,0.5)"><g transform="translate(1,0)"><image opacity="0.75" x="49" y="346.35593220338984" width="30" height="30" href="https://english.n-va.be/sites/international.n-va.be/files/generated/files/page-attachment/logo_nva_verandering-werkt_z_0.jpg"></image><image opacity="0.75" x="49" y="346.35593220338984" width="30" height="30" href="https://english.n-va.be/sites/international.n-va.be/files/generated/files/page-attachment/logo_nva_verandering-werkt_z_0.jpg"></image></g><g transform="translate(54,0)"><image opacity="0.75" x="49" y="346.35593220338984" width="30" height="30" href="https://assets.nationbuilder.com/groen/pages/15646/attachments/original/1661256240/Logo_fullcolor.png?1661256240"></image><image opacity="0.75" x="49" y="346.35593220338984" width="30" height="30" href="https://assets.nationbuilder.com/groen/pages/15646/attachments/original/1661256240/Logo_fullcolor.png?1661256240"></image></g><g transform="translate(107,0)"><image opacity="0.75" x="49" y="346.35593220338984" width="30" height="30" href="https://assets.nationbuilder.com/vooruit/sites/3/meta_images/original/Vooruit_thumbnail.jpg?1619535283"></image><image opacity="0.75" x="49" y="346.35593220338984" width="30" height="30" href="https://assets.nationbuilder.com/vooruit/sites/3/meta_images/original/Vooruit_thumbnail.jpg?1619535283"></image></g><g transform="translate(160,0)"><image opacity="0.75" x="49" y="346.35593220338984" width="30" height="30" href="https://www.cdenvwevelgem.be/sites/cdvwevelgem/files/styles/colorbox_large__1200x1200/public/t_is_beslist_1080x1080_3_0.png?itok=VwiNS9Qw"></image><image opacity="0.75" x="49" y="346.35593220338984" width="30" height="30" href="https://www.cdenvwevelgem.be/sites/cdvwevelgem/files/styles/colorbox_large__1200x1200/public/t_is_beslist_1080x1080_3_0.png?itok=VwiNS9Qw"></image></g><g transform="translate(213,0)"><image opacity="0.75" x="49" y="346.35593220338984" width="30" height="30" href="https://www.vlaamsbelangwinkel.org/cdn/shop/files/LOGO_420x200_f1922b23-85a4-4931-927b-6ca468421e2f_600x.png?v=1630921475"></image><image opacity="0.75" x="49" y="346.35593220338984" width="30" height="30" href="https://www.vlaamsbelangwinkel.org/cdn/shop/files/LOGO_420x200_f1922b23-85a4-4931-927b-6ca468421e2f_600x.png?v=1630921475"></image></g><g transform="translate(266,0)"><image opacity="0.75" x="49" y="346.35593220338984" width="30" height="30" href="https://assets.nationbuilder.com/openvld/pages/68/attachments/original/1698034850/logonieuw-light-logo.png?1698034850"></image><image opacity="0.75" x="49" y="346.35593220338984" width="30" height="30" href="https://assets.nationbuilder.com/openvld/pages/68/attachments/original/1698034850/logonieuw-light-logo.png?1698034850"></image></g><g transform="translate(319,0)"><image opacity="0.75" x="49" y="346.35593220338984" width="30" height="30" href="https://www.pvdashop.be/cdn/shop/files/PVDA-logo-LARGE-rgb-1_300x300.png?v=1638700063"></image><image opacity="0.75" x="49" y="346.35593220338984" width="30" height="30" href="https://www.pvdashop.be/cdn/shop/files/PVDA-logo-LARGE-rgb-1_300x300.png?v=1638700063"></image></g><g transform="translate(425,0)"><image opacity="0.75" x="49" y="346.35593220338984" width="30" height="30" href="https://static.wixstatic.com/media/82fb7d_0931497fc86c4e03897061307239f0fd~mv2.jpg/v1/fit/w_2500,h_1330,al_c/82fb7d_0931497fc86c4e03897061307239f0fd~mv2.jpg"></image></g><g transform="translate(531,0)"><image opacity="0.75" x="49" y="346.35593220338984" width="30" height="30" href="https://blanco2024.be/wp-content/uploads/2023/04/logo-blanco-11-04-2023.png"></image></g></g><g aria-label="text" transform="translate(10.5,-7.5)"><g stroke="white" stroke-width="3" stroke-linejoin="round" paint-order="stroke" text-anchor="center" transform="translate(1,0)"><text y="0.32em" transform="translate(43,93.42372881355934)" font-size="11" fill="#808080">23.8 %</text><text y="0.32em" transform="translate(65,118.16444880235325)" font-size="14" fill="#000000">21.9 %</text></g><g stroke="white" stroke-width="3" stroke-linejoin="round" paint-order="stroke" text-anchor="center" transform="translate(54,0)"><text y="0.32em" transform="translate(43,20)" font-size="11" fill="#808080">29.5 %</text><text y="0.32em" transform="translate(65,170.69057290937107)" font-size="14" fill="#000000">17.8 %</text></g><g stroke="white" stroke-width="3" stroke-linejoin="round" paint-order="stroke" text-anchor="center" transform="translate(107,0)"><text y="0.32em" transform="translate(43,333.0169491525424)" font-size="11" fill="#808080">5.2 %</text><text y="0.32em" transform="translate(65,175.41018816827753)" font-size="14" fill="#000000">17.4 %</text></g><g stroke="white" stroke-width="3" stroke-linejoin="round" paint-order="stroke" text-anchor="center" transform="translate(160,0)"><text y="0.32em" transform="translate(43,223.52542372881356)" font-size="11" fill="#808080">13.7 %</text><text y="0.32em" transform="translate(65,259.1567446421067)" font-size="14" fill="#000000">10.9 %</text></g><g stroke="white" stroke-width="3" stroke-linejoin="round" paint-order="stroke" text-anchor="center" transform="translate(213,0)"><text y="0.32em" transform="translate(43,324)" font-size="11" fill="#808080">5.9 %</text><text y="0.32em" transform="translate(65,268.02110472988744)" font-size="14" fill="#000000">10.2 %</text></g><g stroke="white" stroke-width="3" stroke-linejoin="round" paint-order="stroke" text-anchor="center" transform="translate(266,0)"><text y="0.32em" transform="translate(43,196.47457627118644)" font-size="11" fill="#808080">15.8 %</text><text y="0.32em" transform="translate(65,271.6974366157726)" font-size="14" fill="#000000">10 %</text></g><g stroke="white" stroke-width="3" stroke-linejoin="round" paint-order="stroke" text-anchor="center" transform="translate(319,0)"><text y="0.32em" transform="translate(43,356.2033898305085)" font-size="11" fill="#808080">3.4 %</text><text y="0.32em" transform="translate(65,284.9052621749077)" font-size="14" fill="#000000">8.9 %</text></g><g stroke="white" stroke-width="3" stroke-linejoin="round" paint-order="stroke" text-anchor="center" transform="translate(372,0)"><text y="0.32em" transform="translate(65,385.67791940981465)" font-size="14" fill="#000000">1.1 %</text></g><g stroke="white" stroke-width="3" stroke-linejoin="round" paint-order="stroke" text-anchor="center" transform="translate(425,0)"><text y="0.32em" transform="translate(65,387.05476957557084)" font-size="14" fill="#000000">1 %</text></g><g stroke="white" stroke-width="3" stroke-linejoin="round" paint-order="stroke" text-anchor="center" transform="translate(478,0)"><text y="0.32em" transform="translate(43,375.52542372881356)" font-size="11" fill="#808080">1.9 %</text><text y="0.32em" transform="translate(65,393.7119110986599)" font-size="14" fill="#000000">0.5 %</text></g><g stroke="white" stroke-width="3" stroke-linejoin="round" paint-order="stroke" text-anchor="center" transform="translate(531,0)"><text y="0.32em" transform="translate(65,396.4585142643694)" font-size="14" fill="#000000">0.3 %</text></g></g><g aria-label="tip" transform="translate(10.5,0.5)"><g fill="var(--plot-background)" fill-opacity="0.9" stroke="currentColor" pointer-events="none" text-anchor="start" transform="translate(1,0)"></g><g fill="var(--plot-background)" fill-opacity="0.9" stroke="currentColor" pointer-events="none" text-anchor="start" transform="translate(54,0)"></g><g fill="var(--plot-background)" fill-opacity="0.9" stroke="currentColor" pointer-events="none" text-anchor="start" transform="translate(107,0)"></g><g fill="var(--plot-background)" fill-opacity="0.9" stroke="currentColor" pointer-events="none" text-anchor="start" transform="translate(160,0)"></g><g fill="var(--plot-background)" fill-opacity="0.9" stroke="currentColor" pointer-events="none" text-anchor="start" transform="translate(213,0)"></g><g fill="var(--plot-background)" fill-opacity="0.9" stroke="currentColor" pointer-events="none" text-anchor="start" transform="translate(266,0)"></g><g fill="var(--plot-background)" fill-opacity="0.9" stroke="currentColor" pointer-events="none" text-anchor="start" transform="translate(319,0)"></g><g fill="var(--plot-background)" fill-opacity="0.9" stroke="currentColor" pointer-events="none" text-anchor="start" transform="translate(372,0)"></g><g fill="var(--plot-background)" fill-opacity="0.9" stroke="currentColor" pointer-events="none" text-anchor="start" transform="translate(425,0)"></g><g fill="var(--plot-background)" fill-opacity="0.9" stroke="currentColor" pointer-events="none" text-anchor="start" transform="translate(478,0)"></g><g fill="var(--plot-background)" fill-opacity="0.9" stroke="currentColor" pointer-events="none" text-anchor="start" transform="translate(531,0)"></g></g></svg>