<svg class="plot-d6a7b5" fill="currentColor" font-family="system-ui, sans-serif" font-size="10" text-anchor="middle" width="640" height="500" viewBox="0 0 640 500" style="min-width: 100%;"><style>:where(.plot-d6a7b5) {
  --plot-background: white;
  display: block;
  height: auto;
  height: intrinsic;
  max-width: 100%;
}
:where(.plot-d6a7b5 text),
:where(.plot-d6a7b5 tspan) {
  white-space: pre;
}</style><g aria-label="fx-axis tick label" transform="translate(0.5,12.964101615137755)"><g text-anchor="end" transform="translate(6,0)"><text y="0.32em" transform="translate(60,400) rotate(-30)">Groen</text></g><g text-anchor="end" transform="translate(50,0)"><text y="0.32em" transform="translate(60,400) rotate(-30)">N-VA</text></g><g text-anchor="end" transform="translate(94,0)"><text y="0.32em" transform="translate(60,400) rotate(-30)">Open VLD</text></g><g text-anchor="end" transform="translate(138,0)"><text y="0.32em" transform="translate(60,400) rotate(-30)">Vooruit</text></g><g text-anchor="end" transform="translate(182,0)"><text y="0.32em" transform="translate(60,400) rotate(-30)">Vlaams Belang</text></g><g text-anchor="end" transform="translate(226,0)"><text y="0.32em" transform="translate(60,400) rotate(-30)">CD&amp;V</text></g><g text-anchor="end" transform="translate(270,0)"><text y="0.32em" transform="translate(60,400) rotate(-30)">PVDA</text></g><g text-anchor="end" transform="translate(314,0)"><text y="0.32em" transform="translate(60,400) rotate(-30)">Volt</text></g><g text-anchor="end" transform="translate(358,0)"><text y="0.32em" transform="translate(60,400) rotate(-30)">Ik stem blanco</text></g><g text-anchor="end" transform="translate(402,0)"><text y="0.32em" transform="translate(60,400) rotate(-30)">Voor U</text></g><g text-anchor="end" transform="translate(446,0)"><text y="0.32em" transform="translate(60,400) rotate(-30)">Niet van plan te gaan stemmen</text></g><g text-anchor="end" transform="translate(490,0)"><text y="0.32em" transform="translate(60,400) rotate(-30)">10</text></g><g text-anchor="end" transform="translate(534,0)"><text y="0.32em" transform="translate(60,400) rotate(-30)">Partij Blanco</text></g></g><g aria-label="fx-axis label" transform="translate(0.5,97.5)"><text transform="translate(330,400)">Stemkeuze</text></g><g aria-label="y-grid" aria-hidden="true" transform="translate(0,0.5)"><g stroke="currentColor" stroke-opacity="0.1" transform="translate(6,0)"><line x1="40" x2="80" y1="400" y2="400"></line><line x1="40" x2="80" y1="374.83443708609275" y2="374.83443708609275"></line><line x1="40" x2="80" y1="349.6688741721854" y2="349.6688741721854"></line><line x1="40" x2="80" y1="324.50331125827813" y2="324.50331125827813"></line><line x1="40" x2="80" y1="299.3377483443709" y2="299.3377483443709"></line><line x1="40" x2="80" y1="274.17218543046357" y2="274.17218543046357"></line><line x1="40" x2="80" y1="249.0066225165563" y2="249.0066225165563"></line><line x1="40" x2="80" y1="223.84105960264898" y2="223.84105960264898"></line><line x1="40" x2="80" y1="198.67549668874173" y2="198.67549668874173"></line><line x1="40" x2="80" y1="173.50993377483442" y2="173.50993377483442"></line><line x1="40" x2="80" y1="148.3443708609271" y2="148.3443708609271"></line><line x1="40" x2="80" y1="123.17880794701985" y2="123.17880794701985"></line><line x1="40" x2="80" y1="98.01324503311255" y2="98.01324503311255"></line><line x1="40" x2="80" y1="72.84768211920527" y2="72.84768211920527"></line><line x1="40" x2="80" y1="47.68211920529799" y2="47.68211920529799"></line><line x1="40" x2="80" y1="22.5165562913907" y2="22.5165562913907"></line></g><g stroke="currentColor" stroke-opacity="0.1" transform="translate(50,0)"><line x1="40" x2="80" y1="400" y2="400"></line><line x1="40" x2="80" y1="374.83443708609275" y2="374.83443708609275"></line><line x1="40" x2="80" y1="349.6688741721854" y2="349.6688741721854"></line><line x1="40" x2="80" y1="324.50331125827813" y2="324.50331125827813"></line><line x1="40" x2="80" y1="299.3377483443709" y2="299.3377483443709"></line><line x1="40" x2="80" y1="274.17218543046357" y2="274.17218543046357"></line><line x1="40" x2="80" y1="249.0066225165563" y2="249.0066225165563"></line><line x1="40" x2="80" y1="223.84105960264898" y2="223.84105960264898"></line><line x1="40" x2="80" y1="198.67549668874173" y2="198.67549668874173"></line><line x1="40" x2="80" y1="173.50993377483442" y2="173.50993377483442"></line><line x1="40" x2="80" y1="148.3443708609271" y2="148.3443708609271"></line><line x1="40" x2="80" y1="123.17880794701985" y2="123.17880794701985"></line><line x1="40" x2="80" y1="98.01324503311255" y2="98.01324503311255"></line><line x1="40" x2="80" y1="72.84768211920527" y2="72.84768211920527"></line><line x1="40" x2="80" y1="47.68211920529799" y2="47.68211920529799"></line><line x1="40" x2="80" y1="22.5165562913907" y2="22.5165562913907"></line></g><g stroke="currentColor" stroke-opacity="0.1" transform="translate(94,0)"><line x1="40" x2="80" y1="400" y2="400"></line><line x1="40" x2="80" y1="374.83443708609275" y2="374.83443708609275"></line><line x1="40" x2="80" y1="349.6688741721854" y2="349.6688741721854"></line><line x1="40" x2="80" y1="324.50331125827813" y2="324.50331125827813"></line><line x1="40" x2="80" y1="299.3377483443709" y2="299.3377483443709"></line><line x1="40" x2="80" y1="274.17218543046357" y2="274.17218543046357"></line><line x1="40" x2="80" y1="249.0066225165563" y2="249.0066225165563"></line><line x1="40" x2="80" y1="223.84105960264898" y2="223.84105960264898"></line><line x1="40" x2="80" y1="198.67549668874173" y2="198.67549668874173"></line><line x1="40" x2="80" y1="173.50993377483442" y2="173.50993377483442"></line><line x1="40" x2="80" y1="148.3443708609271" y2="148.3443708609271"></line><line x1="40" x2="80" y1="123.17880794701985" y2="123.17880794701985"></line><line x1="40" x2="80" y1="98.01324503311255" y2="98.01324503311255"></line><line x1="40" x2="80" y1="72.84768211920527" y2="72.84768211920527"></line><line x1="40" x2="80" y1="47.68211920529799" y2="47.68211920529799"></line><line x1="40" x2="80" y1="22.5165562913907" y2="22.5165562913907"></line></g><g stroke="currentColor" stroke-opacity="0.1" transform="translate(138,0)"><line x1="40" x2="80" y1="400" y2="400"></line><line x1="40" x2="80" y1="374.83443708609275" y2="374.83443708609275"></line><line x1="40" x2="80" y1="349.6688741721854" y2="349.6688741721854"></line><line x1="40" x2="80" y1="324.50331125827813" y2="324.50331125827813"></line><line x1="40" x2="80" y1="299.3377483443709" y2="299.3377483443709"></line><line x1="40" x2="80" y1="274.17218543046357" y2="274.17218543046357"></line><line x1="40" x2="80" y1="249.0066225165563" y2="249.0066225165563"></line><line x1="40" x2="80" y1="223.84105960264898" y2="223.84105960264898"></line><line x1="40" x2="80" y1="198.67549668874173" y2="198.67549668874173"></line><line x1="40" x2="80" y1="173.50993377483442" y2="173.50993377483442"></line><line x1="40" x2="80" y1="148.3443708609271" y2="148.3443708609271"></line><line x1="40" x2="80" y1="123.17880794701985" y2="123.17880794701985"></line><line x1="40" x2="80" y1="98.01324503311255" y2="98.01324503311255"></line><line x1="40" x2="80" y1="72.84768211920527" y2="72.84768211920527"></line><line x1="40" x2="80" y1="47.68211920529799" y2="47.68211920529799"></line><line x1="40" x2="80" y1="22.5165562913907" y2="22.5165562913907"></line></g><g stroke="currentColor" stroke-opacity="0.1" transform="translate(182,0)"><line x1="40" x2="80" y1="400" y2="400"></line><line x1="40" x2="80" y1="374.83443708609275" y2="374.83443708609275"></line><line x1="40" x2="80" y1="349.6688741721854" y2="349.6688741721854"></line><line x1="40" x2="80" y1="324.50331125827813" y2="324.50331125827813"></line><line x1="40" x2="80" y1="299.3377483443709" y2="299.3377483443709"></line><line x1="40" x2="80" y1="274.17218543046357" y2="274.17218543046357"></line><line x1="40" x2="80" y1="249.0066225165563" y2="249.0066225165563"></line><line x1="40" x2="80" y1="223.84105960264898" y2="223.84105960264898"></line><line x1="40" x2="80" y1="198.67549668874173" y2="198.67549668874173"></line><line x1="40" x2="80" y1="173.50993377483442" y2="173.50993377483442"></line><line x1="40" x2="80" y1="148.3443708609271" y2="148.3443708609271"></line><line x1="40" x2="80" y1="123.17880794701985" y2="123.17880794701985"></line><line x1="40" x2="80" y1="98.01324503311255" y2="98.01324503311255"></line><line x1="40" x2="80" y1="72.84768211920527" y2="72.84768211920527"></line><line x1="40" x2="80" y1="47.68211920529799" y2="47.68211920529799"></line><line x1="40" x2="80" y1="22.5165562913907" y2="22.5165562913907"></line></g><g stroke="currentColor" stroke-opacity="0.1" transform="translate(226,0)"><line x1="40" x2="80" y1="400" y2="400"></line><line x1="40" x2="80" y1="374.83443708609275" y2="374.83443708609275"></line><line x1="40" x2="80" y1="349.6688741721854" y2="349.6688741721854"></line><line x1="40" x2="80" y1="324.50331125827813" y2="324.50331125827813"></line><line x1="40" x2="80" y1="299.3377483443709" y2="299.3377483443709"></line><line x1="40" x2="80" y1="274.17218543046357" y2="274.17218543046357"></line><line x1="40" x2="80" y1="249.0066225165563" y2="249.0066225165563"></line><line x1="40" x2="80" y1="223.84105960264898" y2="223.84105960264898"></line><line x1="40" x2="80" y1="198.67549668874173" y2="198.67549668874173"></line><line x1="40" x2="80" y1="173.50993377483442" y2="173.50993377483442"></line><line x1="40" x2="80" y1="148.3443708609271" y2="148.3443708609271"></line><line x1="40" x2="80" y1="123.17880794701985" y2="123.17880794701985"></line><line x1="40" x2="80" y1="98.01324503311255" y2="98.01324503311255"></line><line x1="40" x2="80" y1="72.84768211920527" y2="72.84768211920527"></line><line x1="40" x2="80" y1="47.68211920529799" y2="47.68211920529799"></line><line x1="40" x2="80" y1="22.5165562913907" y2="22.5165562913907"></line></g><g stroke="currentColor" stroke-opacity="0.1" transform="translate(270,0)"><line x1="40" x2="80" y1="400" y2="400"></line><line x1="40" x2="80" y1="374.83443708609275" y2="374.83443708609275"></line><line x1="40" x2="80" y1="349.6688741721854" y2="349.6688741721854"></line><line x1="40" x2="80" y1="324.50331125827813" y2="324.50331125827813"></line><line x1="40" x2="80" y1="299.3377483443709" y2="299.3377483443709"></line><line x1="40" x2="80" y1="274.17218543046357" y2="274.17218543046357"></line><line x1="40" x2="80" y1="249.0066225165563" y2="249.0066225165563"></line><line x1="40" x2="80" y1="223.84105960264898" y2="223.84105960264898"></line><line x1="40" x2="80" y1="198.67549668874173" y2="198.67549668874173"></line><line x1="40" x2="80" y1="173.50993377483442" y2="173.50993377483442"></line><line x1="40" x2="80" y1="148.3443708609271" y2="148.3443708609271"></line><line x1="40" x2="80" y1="123.17880794701985" y2="123.17880794701985"></line><line x1="40" x2="80" y1="98.01324503311255" y2="98.01324503311255"></line><line x1="40" x2="80" y1="72.84768211920527" y2="72.84768211920527"></line><line x1="40" x2="80" y1="47.68211920529799" y2="47.68211920529799"></line><line x1="40" x2="80" y1="22.5165562913907" y2="22.5165562913907"></line></g><g stroke="currentColor" stroke-opacity="0.1" transform="translate(314,0)"><line x1="40" x2="80" y1="400" y2="400"></line><line x1="40" x2="80" y1="374.83443708609275" y2="374.83443708609275"></line><line x1="40" x2="80" y1="349.6688741721854" y2="349.6688741721854"></line><line x1="40" x2="80" y1="324.50331125827813" y2="324.50331125827813"></line><line x1="40" x2="80" y1="299.3377483443709" y2="299.3377483443709"></line><line x1="40" x2="80" y1="274.17218543046357" y2="274.17218543046357"></line><line x1="40" x2="80" y1="249.0066225165563" y2="249.0066225165563"></line><line x1="40" x2="80" y1="223.84105960264898" y2="223.84105960264898"></line><line x1="40" x2="80" y1="198.67549668874173" y2="198.67549668874173"></line><line x1="40" x2="80" y1="173.50993377483442" y2="173.50993377483442"></line><line x1="40" x2="80" y1="148.3443708609271" y2="148.3443708609271"></line><line x1="40" x2="80" y1="123.17880794701985" y2="123.17880794701985"></line><line x1="40" x2="80" y1="98.01324503311255" y2="98.01324503311255"></line><line x1="40" x2="80" y1="72.84768211920527" y2="72.84768211920527"></line><line x1="40" x2="80" y1="47.68211920529799" y2="47.68211920529799"></line><line x1="40" x2="80" y1="22.5165562913907" y2="22.5165562913907"></line></g><g stroke="currentColor" stroke-opacity="0.1" transform="translate(358,0)"><line x1="40" x2="80" y1="400" y2="400"></line><line x1="40" x2="80" y1="374.83443708609275" y2="374.83443708609275"></line><line x1="40" x2="80" y1="349.6688741721854" y2="349.6688741721854"></line><line x1="40" x2="80" y1="324.50331125827813" y2="324.50331125827813"></line><line x1="40" x2="80" y1="299.3377483443709" y2="299.3377483443709"></line><line x1="40" x2="80" y1="274.17218543046357" y2="274.17218543046357"></line><line x1="40" x2="80" y1="249.0066225165563" y2="249.0066225165563"></line><line x1="40" x2="80" y1="223.84105960264898" y2="223.84105960264898"></line><line x1="40" x2="80" y1="198.67549668874173" y2="198.67549668874173"></line><line x1="40" x2="80" y1="173.50993377483442" y2="173.50993377483442"></line><line x1="40" x2="80" y1="148.3443708609271" y2="148.3443708609271"></line><line x1="40" x2="80" y1="123.17880794701985" y2="123.17880794701985"></line><line x1="40" x2="80" y1="98.01324503311255" y2="98.01324503311255"></line><line x1="40" x2="80" y1="72.84768211920527" y2="72.84768211920527"></line><line x1="40" x2="80" y1="47.68211920529799" y2="47.68211920529799"></line><line x1="40" x2="80" y1="22.5165562913907" y2="22.5165562913907"></line></g><g stroke="currentColor" stroke-opacity="0.1" transform="translate(402,0)"><line x1="40" x2="80" y1="400" y2="400"></line><line x1="40" x2="80" y1="374.83443708609275" y2="374.83443708609275"></line><line x1="40" x2="80" y1="349.6688741721854" y2="349.6688741721854"></line><line x1="40" x2="80" y1="324.50331125827813" y2="324.50331125827813"></line><line x1="40" x2="80" y1="299.3377483443709" y2="299.3377483443709"></line><line x1="40" x2="80" y1="274.17218543046357" y2="274.17218543046357"></line><line x1="40" x2="80" y1="249.0066225165563" y2="249.0066225165563"></line><line x1="40" x2="80" y1="223.84105960264898" y2="223.84105960264898"></line><line x1="40" x2="80" y1="198.67549668874173" y2="198.67549668874173"></line><line x1="40" x2="80" y1="173.50993377483442" y2="173.50993377483442"></line><line x1="40" x2="80" y1="148.3443708609271" y2="148.3443708609271"></line><line x1="40" x2="80" y1="123.17880794701985" y2="123.17880794701985"></line><line x1="40" x2="80" y1="98.01324503311255" y2="98.01324503311255"></line><line x1="40" x2="80" y1="72.84768211920527" y2="72.84768211920527"></line><line x1="40" x2="80" y1="47.68211920529799" y2="47.68211920529799"></line><line x1="40" x2="80" y1="22.5165562913907" y2="22.5165562913907"></line></g><g stroke="currentColor" stroke-opacity="0.1" transform="translate(446,0)"><line x1="40" x2="80" y1="400" y2="400"></line><line x1="40" x2="80" y1="374.83443708609275" y2="374.83443708609275"></line><line x1="40" x2="80" y1="349.6688741721854" y2="349.6688741721854"></line><line x1="40" x2="80" y1="324.50331125827813" y2="324.50331125827813"></line><line x1="40" x2="80" y1="299.3377483443709" y2="299.3377483443709"></line><line x1="40" x2="80" y1="274.17218543046357" y2="274.17218543046357"></line><line x1="40" x2="80" y1="249.0066225165563" y2="249.0066225165563"></line><line x1="40" x2="80" y1="223.84105960264898" y2="223.84105960264898"></line><line x1="40" x2="80" y1="198.67549668874173" y2="198.67549668874173"></line><line x1="40" x2="80" y1="173.50993377483442" y2="173.50993377483442"></line><line x1="40" x2="80" y1="148.3443708609271" y2="148.3443708609271"></line><line x1="40" x2="80" y1="123.17880794701985" y2="123.17880794701985"></line><line x1="40" x2="80" y1="98.01324503311255" y2="98.01324503311255"></line><line x1="40" x2="80" y1="72.84768211920527" y2="72.84768211920527"></line><line x1="40" x2="80" y1="47.68211920529799" y2="47.68211920529799"></line><line x1="40" x2="80" y1="22.5165562913907" y2="22.5165562913907"></line></g><g stroke="currentColor" stroke-opacity="0.1" transform="translate(490,0)"><line x1="40" x2="80" y1="400" y2="400"></line><line x1="40" x2="80" y1="374.83443708609275" y2="374.83443708609275"></line><line x1="40" x2="80" y1="349.6688741721854" y2="349.6688741721854"></line><line x1="40" x2="80" y1="324.50331125827813" y2="324.50331125827813"></line><line x1="40" x2="80" y1="299.3377483443709" y2="299.3377483443709"></line><line x1="40" x2="80" y1="274.17218543046357" y2="274.17218543046357"></line><line x1="40" x2="80" y1="249.0066225165563" y2="249.0066225165563"></line><line x1="40" x2="80" y1="223.84105960264898" y2="223.84105960264898"></line><line x1="40" x2="80" y1="198.67549668874173" y2="198.67549668874173"></line><line x1="40" x2="80" y1="173.50993377483442" y2="173.50993377483442"></line><line x1="40" x2="80" y1="148.3443708609271" y2="148.3443708609271"></line><line x1="40" x2="80" y1="123.17880794701985" y2="123.17880794701985"></line><line x1="40" x2="80" y1="98.01324503311255" y2="98.01324503311255"></line><line x1="40" x2="80" y1="72.84768211920527" y2="72.84768211920527"></line><line x1="40" x2="80" y1="47.68211920529799" y2="47.68211920529799"></line><line x1="40" x2="80" y1="22.5165562913907" y2="22.5165562913907"></line></g><g stroke="currentColor" stroke-opacity="0.1" transform="translate(534,0)"><line x1="40" x2="80" y1="400" y2="400"></line><line x1="40" x2="80" y1="374.83443708609275" y2="374.83443708609275"></line><line x1="40" x2="80" y1="349.6688741721854" y2="349.6688741721854"></line><line x1="40" x2="80" y1="324.50331125827813" y2="324.50331125827813"></line><line x1="40" x2="80" y1="299.3377483443709" y2="299.3377483443709"></line><line x1="40" x2="80" y1="274.17218543046357" y2="274.17218543046357"></line><line x1="40" x2="80" y1="249.0066225165563" y2="249.0066225165563"></line><line x1="40" x2="80" y1="223.84105960264898" y2="223.84105960264898"></line><line x1="40" x2="80" y1="198.67549668874173" y2="198.67549668874173"></line><line x1="40" x2="80" y1="173.50993377483442" y2="173.50993377483442"></line><line x1="40" x2="80" y1="148.3443708609271" y2="148.3443708609271"></line><line x1="40" x2="80" y1="123.17880794701985" y2="123.17880794701985"></line><line x1="40" x2="80" y1="98.01324503311255" y2="98.01324503311255"></line><line x1="40" x2="80" y1="72.84768211920527" y2="72.84768211920527"></line><line x1="40" x2="80" y1="47.68211920529799" y2="47.68211920529799"></line><line x1="40" x2="80" y1="22.5165562913907" y2="22.5165562913907"></line></g></g><g aria-label="y-axis tick" aria-hidden="true" transform="translate(0,0.5)"><g fill="none" stroke="currentColor" transform="translate(6,0)"><path transform="translate(40,400)" d="M0,0L-6,0"></path><path transform="translate(40,374.83443708609275)" d="M0,0L-6,0"></path><path transform="translate(40,349.6688741721854)" d="M0,0L-6,0"></path><path transform="translate(40,324.50331125827813)" d="M0,0L-6,0"></path><path transform="translate(40,299.3377483443709)" d="M0,0L-6,0"></path><path transform="translate(40,274.17218543046357)" d="M0,0L-6,0"></path><path transform="translate(40,249.0066225165563)" d="M0,0L-6,0"></path><path transform="translate(40,223.84105960264898)" d="M0,0L-6,0"></path><path transform="translate(40,198.67549668874173)" d="M0,0L-6,0"></path><path transform="translate(40,173.50993377483442)" d="M0,0L-6,0"></path><path transform="translate(40,148.3443708609271)" d="M0,0L-6,0"></path><path transform="translate(40,123.17880794701985)" d="M0,0L-6,0"></path><path transform="translate(40,98.01324503311255)" d="M0,0L-6,0"></path><path transform="translate(40,72.84768211920527)" d="M0,0L-6,0"></path><path transform="translate(40,47.68211920529799)" d="M0,0L-6,0"></path><path transform="translate(40,22.5165562913907)" d="M0,0L-6,0"></path></g></g><g aria-label="y-axis tick label" transform="translate(-8.5,0.5)"><g text-anchor="end" font-variant="tabular-nums" transform="translate(6,0)"><text y="0.32em" transform="translate(40,400)">0</text><text y="0.32em" transform="translate(40,374.83443708609275)">2</text><text y="0.32em" transform="translate(40,349.6688741721854)">4</text><text y="0.32em" transform="translate(40,324.50331125827813)">6</text><text y="0.32em" transform="translate(40,299.3377483443709)">8</text><text y="0.32em" transform="translate(40,274.17218543046357)">10</text><text y="0.32em" transform="translate(40,249.0066225165563)">12</text><text y="0.32em" transform="translate(40,223.84105960264898)">14</text><text y="0.32em" transform="translate(40,198.67549668874173)">16</text><text y="0.32em" transform="translate(40,173.50993377483442)">18</text><text y="0.32em" transform="translate(40,148.3443708609271)">20</text><text y="0.32em" transform="translate(40,123.17880794701985)">22</text><text y="0.32em" transform="translate(40,98.01324503311255)">24</text><text y="0.32em" transform="translate(40,72.84768211920527)">26</text><text y="0.32em" transform="translate(40,47.68211920529799)">28</text><text y="0.32em" transform="translate(40,22.5165562913907)">30</text></g></g><g aria-label="bar"><g transform="translate(6,0)"><rect x="42" width="17" y="20" height="380" fill="#8bccad"></rect><rect x="61" width="17" y="140.9060141000621" height="259.09398589993793" fill="#02ad5b"></rect></g><g transform="translate(50,0)"><rect x="42" width="17" y="159.66887417218544" height="240.33112582781456" fill="#ffe7a6"></rect><rect x="61" width="17" y="182.4901137267786" height="217.5098862732214" fill="#fabe19"></rect></g><g transform="translate(94,0)"><rect x="42" width="17" y="138.2781456953642" height="261.7218543046358" fill="#606794"></rect><rect x="61" width="17" y="207.625592285738" height="192.374407714262" fill="#29347e"></rect></g><g transform="translate(138,0)"><rect x="42" width="17" y="344.63576158940396" height="55.364238410596045" fill="#c97569"></rect><rect x="61" width="17" y="231.0688258788788" height="168.9311741211212" fill="#cb1a01"></rect></g><g transform="translate(182,0)"><rect x="42" width="17" y="324.50331125827813" height="75.49668874172187" fill="#dbc87b"></rect><rect x="61" width="17" y="275.0972793451111" height="124.90272065488892" fill="#ffcc00"></rect></g><g transform="translate(226,0)"><rect x="42" width="17" y="251.52317880794703" height="148.47682119205297" fill="#f2a474"></rect><rect x="61" width="17" y="279.8355652494032" height="120.1644347505968" fill="#ff6000"></rect></g><g transform="translate(270,0)"><rect x="42" width="17" y="371.0596026490066" height="28.940397350993408" fill="#de8f8a"></rect><rect x="61" width="17" y="317.6139939752121" height="82.38600602478789" fill="#ef4135"></rect></g><g transform="translate(314,0)"><rect x="61" width="17" y="348.9092442097513" height="51.09075579024869" fill="#8f8f8f"></rect></g><g transform="translate(358,0)"><rect x="42" width="17" y="360.99337748344374" height="39.00662251655626" fill="#c3c3c3"></rect><rect x="61" width="17" y="385.4918198263816" height="14.508180173618427" fill="#8f8f8f"></rect></g><g transform="translate(402,0)"><rect x="61" width="17" y="389.7261927852967" height="10.27380721470331" fill="#df0cb9"></rect></g><g transform="translate(446,0)"><rect x="61" width="17" y="390.6287234337333" height="9.371276566266715" fill="#8f8f8f"></rect></g><g transform="translate(490,0)"><rect x="61" width="17" y="396.15672365540746" height="3.843276344592539" fill="#8f8f8f"></rect></g><g transform="translate(534,0)"><rect x="61" width="17" y="396.2544978089881" height="3.7455021910118944" fill="#b32d00"></rect></g></g><g aria-label="image" transform="translate(0.5,0.5)"><g transform="translate(6,0)"><image opacity="0.75" x="45" y="347.25165562913907" width="30" height="30" href="https://assets.nationbuilder.com/groen/pages/15646/attachments/original/1661256240/Logo_fullcolor.png?1661256240"></image><image opacity="0.75" x="45" y="347.25165562913907" width="30" height="30" href="https://assets.nationbuilder.com/groen/pages/15646/attachments/original/1661256240/Logo_fullcolor.png?1661256240"></image></g><g transform="translate(50,0)"><image opacity="0.75" x="45" y="347.25165562913907" width="30" height="30" href="https://english.n-va.be/sites/international.n-va.be/files/generated/files/page-attachment/logo_nva_verandering-werkt_z_0.jpg"></image><image opacity="0.75" x="45" y="347.25165562913907" width="30" height="30" href="https://english.n-va.be/sites/international.n-va.be/files/generated/files/page-attachment/logo_nva_verandering-werkt_z_0.jpg"></image></g><g transform="translate(94,0)"><image opacity="0.75" x="45" y="347.25165562913907" width="30" height="30" href="https://assets.nationbuilder.com/openvld/pages/68/attachments/original/1698034850/logonieuw-light-logo.png?1698034850"></image><image opacity="0.75" x="45" y="347.25165562913907" width="30" height="30" href="https://assets.nationbuilder.com/openvld/pages/68/attachments/original/1698034850/logonieuw-light-logo.png?1698034850"></image></g><g transform="translate(138,0)"><image opacity="0.75" x="45" y="347.25165562913907" width="30" height="30" href="https://assets.nationbuilder.com/vooruit/sites/3/meta_images/original/Vooruit_thumbnail.jpg?1619535283"></image><image opacity="0.75" x="45" y="347.25165562913907" width="30" height="30" href="https://assets.nationbuilder.com/vooruit/sites/3/meta_images/original/Vooruit_thumbnail.jpg?1619535283"></image></g><g transform="translate(182,0)"><image opacity="0.75" x="45" y="347.25165562913907" width="30" height="30" href="https://www.vlaamsbelangwinkel.org/cdn/shop/files/LOGO_420x200_f1922b23-85a4-4931-927b-6ca468421e2f_600x.png?v=1630921475"></image><image opacity="0.75" x="45" y="347.25165562913907" width="30" height="30" href="https://www.vlaamsbelangwinkel.org/cdn/shop/files/LOGO_420x200_f1922b23-85a4-4931-927b-6ca468421e2f_600x.png?v=1630921475"></image></g><g transform="translate(226,0)"><image opacity="0.75" x="45" y="347.25165562913907" width="30" height="30" href="https://www.cdenvwevelgem.be/sites/cdvwevelgem/files/styles/colorbox_large__1200x1200/public/t_is_beslist_1080x1080_3_0.png?itok=VwiNS9Qw"></image><image opacity="0.75" x="45" y="347.25165562913907" width="30" height="30" href="https://www.cdenvwevelgem.be/sites/cdvwevelgem/files/styles/colorbox_large__1200x1200/public/t_is_beslist_1080x1080_3_0.png?itok=VwiNS9Qw"></image></g><g transform="translate(270,0)"><image opacity="0.75" x="45" y="347.25165562913907" width="30" height="30" href="https://www.pvdashop.be/cdn/shop/files/PVDA-logo-LARGE-rgb-1_300x300.png?v=1638700063"></image><image opacity="0.75" x="45" y="347.25165562913907" width="30" height="30" href="https://www.pvdashop.be/cdn/shop/files/PVDA-logo-LARGE-rgb-1_300x300.png?v=1638700063"></image></g><g transform="translate(402,0)"><image opacity="0.75" x="45" y="347.25165562913907" width="30" height="30" href="https://static.wixstatic.com/media/82fb7d_0931497fc86c4e03897061307239f0fd~mv2.jpg/v1/fit/w_2500,h_1330,al_c/82fb7d_0931497fc86c4e03897061307239f0fd~mv2.jpg"></image></g><g transform="translate(534,0)"><image opacity="0.75" x="45" y="347.25165562913907" width="30" height="30" href="https://blanco2024.be/wp-content/uploads/2023/04/logo-blanco-11-04-2023.png"></image></g></g><g aria-label="text" transform="translate(9,-7.5)"><g stroke="white" stroke-width="3" stroke-linejoin="round" paint-order="stroke" text-anchor="center" transform="translate(6,0)"><text y="0.32em" transform="translate(42,20)" font-size="11" fill="#808080">30.2 %</text><text y="0.32em" transform="translate(61,140.9060141000621)" font-size="14" fill="#000000">20.6 %</text></g><g stroke="white" stroke-width="3" stroke-linejoin="round" paint-order="stroke" text-anchor="center" transform="translate(50,0)"><text y="0.32em" transform="translate(42,159.66887417218544)" font-size="11" fill="#808080">19.1 %</text><text y="0.32em" transform="translate(61,182.4901137267786)" font-size="14" fill="#000000">17.3 %</text></g><g stroke="white" stroke-width="3" stroke-linejoin="round" paint-order="stroke" text-anchor="center" transform="translate(94,0)"><text y="0.32em" transform="translate(42,138.2781456953642)" font-size="11" fill="#808080">20.8 %</text><text y="0.32em" transform="translate(61,207.625592285738)" font-size="14" fill="#000000">15.3 %</text></g><g stroke="white" stroke-width="3" stroke-linejoin="round" paint-order="stroke" text-anchor="center" transform="translate(138,0)"><text y="0.32em" transform="translate(42,344.63576158940396)" font-size="11" fill="#808080">4.4 %</text><text y="0.32em" transform="translate(61,231.0688258788788)" font-size="14" fill="#000000">13.4 %</text></g><g stroke="white" stroke-width="3" stroke-linejoin="round" paint-order="stroke" text-anchor="center" transform="translate(182,0)"><text y="0.32em" transform="translate(42,324.50331125827813)" font-size="11" fill="#808080">6 %</text><text y="0.32em" transform="translate(61,275.0972793451111)" font-size="14" fill="#000000">9.9 %</text></g><g stroke="white" stroke-width="3" stroke-linejoin="round" paint-order="stroke" text-anchor="center" transform="translate(226,0)"><text y="0.32em" transform="translate(42,251.52317880794703)" font-size="11" fill="#808080">11.8 %</text><text y="0.32em" transform="translate(61,279.8355652494032)" font-size="14" fill="#000000">9.5 %</text></g><g stroke="white" stroke-width="3" stroke-linejoin="round" paint-order="stroke" text-anchor="center" transform="translate(270,0)"><text y="0.32em" transform="translate(42,371.0596026490066)" font-size="11" fill="#808080">2.3 %</text><text y="0.32em" transform="translate(61,317.6139939752121)" font-size="14" fill="#000000">6.5 %</text></g><g stroke="white" stroke-width="3" stroke-linejoin="round" paint-order="stroke" text-anchor="center" transform="translate(314,0)"><text y="0.32em" transform="translate(61,348.9092442097513)" font-size="14" fill="#000000">4.1 %</text></g><g stroke="white" stroke-width="3" stroke-linejoin="round" paint-order="stroke" text-anchor="center" transform="translate(358,0)"><text y="0.32em" transform="translate(42,360.99337748344374)" font-size="11" fill="#808080">3.1 %</text><text y="0.32em" transform="translate(61,385.4918198263816)" font-size="14" fill="#000000">1.2 %</text></g><g stroke="white" stroke-width="3" stroke-linejoin="round" paint-order="stroke" text-anchor="center" transform="translate(402,0)"><text y="0.32em" transform="translate(61,389.7261927852967)" font-size="14" fill="#000000">0.8 %</text></g><g stroke="white" stroke-width="3" stroke-linejoin="round" paint-order="stroke" text-anchor="center" transform="translate(446,0)"><text y="0.32em" transform="translate(61,390.6287234337333)" font-size="14" fill="#000000">0.7 %</text></g><g stroke="white" stroke-width="3" stroke-linejoin="round" paint-order="stroke" text-anchor="center" transform="translate(490,0)"><text y="0.32em" transform="translate(61,396.15672365540746)" font-size="14" fill="#000000">0.3 %</text></g><g stroke="white" stroke-width="3" stroke-linejoin="round" paint-order="stroke" text-anchor="center" transform="translate(534,0)"><text y="0.32em" transform="translate(61,396.2544978089881)" font-size="14" fill="#000000">0.3 %</text></g></g><g aria-label="tip" transform="translate(9,0.5)"><g fill="var(--plot-background)" fill-opacity="0.9" stroke="currentColor" pointer-events="none" text-anchor="start" transform="translate(6,0)"></g><g fill="var(--plot-background)" fill-opacity="0.9" stroke="currentColor" pointer-events="none" text-anchor="start" transform="translate(50,0)"></g><g fill="var(--plot-background)" fill-opacity="0.9" stroke="currentColor" pointer-events="none" text-anchor="start" transform="translate(94,0)"></g><g fill="var(--plot-background)" fill-opacity="0.9" stroke="currentColor" pointer-events="none" text-anchor="start" transform="translate(138,0)"></g><g fill="var(--plot-background)" fill-opacity="0.9" stroke="currentColor" pointer-events="none" text-anchor="start" transform="translate(182,0)"></g><g fill="var(--plot-background)" fill-opacity="0.9" stroke="currentColor" pointer-events="none" text-anchor="start" transform="translate(226,0)"></g><g fill="var(--plot-background)" fill-opacity="0.9" stroke="currentColor" pointer-events="none" text-anchor="start" transform="translate(270,0)"></g><g fill="var(--plot-background)" fill-opacity="0.9" stroke="currentColor" pointer-events="none" text-anchor="start" transform="translate(314,0)"></g><g fill="var(--plot-background)" fill-opacity="0.9" stroke="currentColor" pointer-events="none" text-anchor="start" transform="translate(358,0)"></g><g fill="var(--plot-background)" fill-opacity="0.9" stroke="currentColor" pointer-events="none" text-anchor="start" transform="translate(402,0)"></g><g fill="var(--plot-background)" fill-opacity="0.9" stroke="currentColor" pointer-events="none" text-anchor="start" transform="translate(446,0)"></g><g fill="var(--plot-background)" fill-opacity="0.9" stroke="currentColor" pointer-events="none" text-anchor="start" transform="translate(490,0)"></g><g fill="var(--plot-background)" fill-opacity="0.9" stroke="currentColor" pointer-events="none" text-anchor="start" transform="translate(534,0)"></g></g></svg>