<svg class="plot-d6a7b5" fill="currentColor" font-family="system-ui, sans-serif" font-size="10" text-anchor="middle" width="640" height="500" viewBox="0 0 640 500" style="min-width: 100%;"><style>:where(.plot-d6a7b5) {
  --plot-background: white;
  display: block;
  height: auto;
  height: intrinsic;
  max-width: 100%;
}
:where(.plot-d6a7b5 text),
:where(.plot-d6a7b5 tspan) {
  white-space: pre;
}</style><g aria-label="fx-axis tick label" transform="translate(0.5,12.964101615137755)"><g text-anchor="end" transform="translate(4,0)"><text y="0.32em" transform="translate(61.5,400) rotate(-30)">N-VA</text></g><g text-anchor="end" transform="translate(52,0)"><text y="0.32em" transform="translate(61.5,400) rotate(-30)">Groen</text></g><g text-anchor="end" transform="translate(100,0)"><text y="0.32em" transform="translate(61.5,400) rotate(-30)">Vooruit</text></g><g text-anchor="end" transform="translate(148,0)"><text y="0.32em" transform="translate(61.5,400) rotate(-30)">Open VLD</text></g><g text-anchor="end" transform="translate(196,0)"><text y="0.32em" transform="translate(61.5,400) rotate(-30)">CD&amp;V</text></g><g text-anchor="end" transform="translate(244,0)"><text y="0.32em" transform="translate(61.5,400) rotate(-30)">PVDA</text></g><g text-anchor="end" transform="translate(292,0)"><text y="0.32em" transform="translate(61.5,400) rotate(-30)">Vlaams Belang</text></g><g text-anchor="end" transform="translate(340,0)"><text y="0.32em" transform="translate(61.5,400) rotate(-30)">Voor U</text></g><g text-anchor="end" transform="translate(388,0)"><text y="0.32em" transform="translate(61.5,400) rotate(-30)">Niet van plan te gaan stemmen</text></g><g text-anchor="end" transform="translate(436,0)"><text y="0.32em" transform="translate(61.5,400) rotate(-30)">L'Unie</text></g><g text-anchor="end" transform="translate(484,0)"><text y="0.32em" transform="translate(61.5,400) rotate(-30)">Ik stem blanco</text></g><g text-anchor="end" transform="translate(532,0)"><text y="0.32em" transform="translate(61.5,400) rotate(-30)">Partij Blanco</text></g></g><g aria-label="fx-axis label" transform="translate(0.5,97.5)"><text transform="translate(329.5,400)">Stemkeuze</text></g><g aria-label="y-grid" aria-hidden="true" transform="translate(0,0.5)"><g stroke="currentColor" stroke-opacity="0.1" transform="translate(4,0)"><line x1="40" x2="83" y1="400" y2="400"></line><line x1="40" x2="83" y1="373.42657342657344" y2="373.42657342657344"></line><line x1="40" x2="83" y1="346.8531468531468" y2="346.8531468531468"></line><line x1="40" x2="83" y1="320.2797202797203" y2="320.2797202797203"></line><line x1="40" x2="83" y1="293.7062937062937" y2="293.7062937062937"></line><line x1="40" x2="83" y1="267.1328671328671" y2="267.1328671328671"></line><line x1="40" x2="83" y1="240.55944055944056" y2="240.55944055944056"></line><line x1="40" x2="83" y1="213.98601398601394" y2="213.98601398601394"></line><line x1="40" x2="83" y1="187.4125874125874" y2="187.4125874125874"></line><line x1="40" x2="83" y1="160.83916083916083" y2="160.83916083916083"></line><line x1="40" x2="83" y1="134.26573426573424" y2="134.26573426573424"></line><line x1="40" x2="83" y1="107.69230769230768" y2="107.69230769230768"></line><line x1="40" x2="83" y1="81.11888111888108" y2="81.11888111888108"></line><line x1="40" x2="83" y1="54.54545454545452" y2="54.54545454545452"></line><line x1="40" x2="83" y1="27.972027972027952" y2="27.972027972027952"></line></g><g stroke="currentColor" stroke-opacity="0.1" transform="translate(52,0)"><line x1="40" x2="83" y1="400" y2="400"></line><line x1="40" x2="83" y1="373.42657342657344" y2="373.42657342657344"></line><line x1="40" x2="83" y1="346.8531468531468" y2="346.8531468531468"></line><line x1="40" x2="83" y1="320.2797202797203" y2="320.2797202797203"></line><line x1="40" x2="83" y1="293.7062937062937" y2="293.7062937062937"></line><line x1="40" x2="83" y1="267.1328671328671" y2="267.1328671328671"></line><line x1="40" x2="83" y1="240.55944055944056" y2="240.55944055944056"></line><line x1="40" x2="83" y1="213.98601398601394" y2="213.98601398601394"></line><line x1="40" x2="83" y1="187.4125874125874" y2="187.4125874125874"></line><line x1="40" x2="83" y1="160.83916083916083" y2="160.83916083916083"></line><line x1="40" x2="83" y1="134.26573426573424" y2="134.26573426573424"></line><line x1="40" x2="83" y1="107.69230769230768" y2="107.69230769230768"></line><line x1="40" x2="83" y1="81.11888111888108" y2="81.11888111888108"></line><line x1="40" x2="83" y1="54.54545454545452" y2="54.54545454545452"></line><line x1="40" x2="83" y1="27.972027972027952" y2="27.972027972027952"></line></g><g stroke="currentColor" stroke-opacity="0.1" transform="translate(100,0)"><line x1="40" x2="83" y1="400" y2="400"></line><line x1="40" x2="83" y1="373.42657342657344" y2="373.42657342657344"></line><line x1="40" x2="83" y1="346.8531468531468" y2="346.8531468531468"></line><line x1="40" x2="83" y1="320.2797202797203" y2="320.2797202797203"></line><line x1="40" x2="83" y1="293.7062937062937" y2="293.7062937062937"></line><line x1="40" x2="83" y1="267.1328671328671" y2="267.1328671328671"></line><line x1="40" x2="83" y1="240.55944055944056" y2="240.55944055944056"></line><line x1="40" x2="83" y1="213.98601398601394" y2="213.98601398601394"></line><line x1="40" x2="83" y1="187.4125874125874" y2="187.4125874125874"></line><line x1="40" x2="83" y1="160.83916083916083" y2="160.83916083916083"></line><line x1="40" x2="83" y1="134.26573426573424" y2="134.26573426573424"></line><line x1="40" x2="83" y1="107.69230769230768" y2="107.69230769230768"></line><line x1="40" x2="83" y1="81.11888111888108" y2="81.11888111888108"></line><line x1="40" x2="83" y1="54.54545454545452" y2="54.54545454545452"></line><line x1="40" x2="83" y1="27.972027972027952" y2="27.972027972027952"></line></g><g stroke="currentColor" stroke-opacity="0.1" transform="translate(148,0)"><line x1="40" x2="83" y1="400" y2="400"></line><line x1="40" x2="83" y1="373.42657342657344" y2="373.42657342657344"></line><line x1="40" x2="83" y1="346.8531468531468" y2="346.8531468531468"></line><line x1="40" x2="83" y1="320.2797202797203" y2="320.2797202797203"></line><line x1="40" x2="83" y1="293.7062937062937" y2="293.7062937062937"></line><line x1="40" x2="83" y1="267.1328671328671" y2="267.1328671328671"></line><line x1="40" x2="83" y1="240.55944055944056" y2="240.55944055944056"></line><line x1="40" x2="83" y1="213.98601398601394" y2="213.98601398601394"></line><line x1="40" x2="83" y1="187.4125874125874" y2="187.4125874125874"></line><line x1="40" x2="83" y1="160.83916083916083" y2="160.83916083916083"></line><line x1="40" x2="83" y1="134.26573426573424" y2="134.26573426573424"></line><line x1="40" x2="83" y1="107.69230769230768" y2="107.69230769230768"></line><line x1="40" x2="83" y1="81.11888111888108" y2="81.11888111888108"></line><line x1="40" x2="83" y1="54.54545454545452" y2="54.54545454545452"></line><line x1="40" x2="83" y1="27.972027972027952" y2="27.972027972027952"></line></g><g stroke="currentColor" stroke-opacity="0.1" transform="translate(196,0)"><line x1="40" x2="83" y1="400" y2="400"></line><line x1="40" x2="83" y1="373.42657342657344" y2="373.42657342657344"></line><line x1="40" x2="83" y1="346.8531468531468" y2="346.8531468531468"></line><line x1="40" x2="83" y1="320.2797202797203" y2="320.2797202797203"></line><line x1="40" x2="83" y1="293.7062937062937" y2="293.7062937062937"></line><line x1="40" x2="83" y1="267.1328671328671" y2="267.1328671328671"></line><line x1="40" x2="83" y1="240.55944055944056" y2="240.55944055944056"></line><line x1="40" x2="83" y1="213.98601398601394" y2="213.98601398601394"></line><line x1="40" x2="83" y1="187.4125874125874" y2="187.4125874125874"></line><line x1="40" x2="83" y1="160.83916083916083" y2="160.83916083916083"></line><line x1="40" x2="83" y1="134.26573426573424" y2="134.26573426573424"></line><line x1="40" x2="83" y1="107.69230769230768" y2="107.69230769230768"></line><line x1="40" x2="83" y1="81.11888111888108" y2="81.11888111888108"></line><line x1="40" x2="83" y1="54.54545454545452" y2="54.54545454545452"></line><line x1="40" x2="83" y1="27.972027972027952" y2="27.972027972027952"></line></g><g stroke="currentColor" stroke-opacity="0.1" transform="translate(244,0)"><line x1="40" x2="83" y1="400" y2="400"></line><line x1="40" x2="83" y1="373.42657342657344" y2="373.42657342657344"></line><line x1="40" x2="83" y1="346.8531468531468" y2="346.8531468531468"></line><line x1="40" x2="83" y1="320.2797202797203" y2="320.2797202797203"></line><line x1="40" x2="83" y1="293.7062937062937" y2="293.7062937062937"></line><line x1="40" x2="83" y1="267.1328671328671" y2="267.1328671328671"></line><line x1="40" x2="83" y1="240.55944055944056" y2="240.55944055944056"></line><line x1="40" x2="83" y1="213.98601398601394" y2="213.98601398601394"></line><line x1="40" x2="83" y1="187.4125874125874" y2="187.4125874125874"></line><line x1="40" x2="83" y1="160.83916083916083" y2="160.83916083916083"></line><line x1="40" x2="83" y1="134.26573426573424" y2="134.26573426573424"></line><line x1="40" x2="83" y1="107.69230769230768" y2="107.69230769230768"></line><line x1="40" x2="83" y1="81.11888111888108" y2="81.11888111888108"></line><line x1="40" x2="83" y1="54.54545454545452" y2="54.54545454545452"></line><line x1="40" x2="83" y1="27.972027972027952" y2="27.972027972027952"></line></g><g stroke="currentColor" stroke-opacity="0.1" transform="translate(292,0)"><line x1="40" x2="83" y1="400" y2="400"></line><line x1="40" x2="83" y1="373.42657342657344" y2="373.42657342657344"></line><line x1="40" x2="83" y1="346.8531468531468" y2="346.8531468531468"></line><line x1="40" x2="83" y1="320.2797202797203" y2="320.2797202797203"></line><line x1="40" x2="83" y1="293.7062937062937" y2="293.7062937062937"></line><line x1="40" x2="83" y1="267.1328671328671" y2="267.1328671328671"></line><line x1="40" x2="83" y1="240.55944055944056" y2="240.55944055944056"></line><line x1="40" x2="83" y1="213.98601398601394" y2="213.98601398601394"></line><line x1="40" x2="83" y1="187.4125874125874" y2="187.4125874125874"></line><line x1="40" x2="83" y1="160.83916083916083" y2="160.83916083916083"></line><line x1="40" x2="83" y1="134.26573426573424" y2="134.26573426573424"></line><line x1="40" x2="83" y1="107.69230769230768" y2="107.69230769230768"></line><line x1="40" x2="83" y1="81.11888111888108" y2="81.11888111888108"></line><line x1="40" x2="83" y1="54.54545454545452" y2="54.54545454545452"></line><line x1="40" x2="83" y1="27.972027972027952" y2="27.972027972027952"></line></g><g stroke="currentColor" stroke-opacity="0.1" transform="translate(340,0)"><line x1="40" x2="83" y1="400" y2="400"></line><line x1="40" x2="83" y1="373.42657342657344" y2="373.42657342657344"></line><line x1="40" x2="83" y1="346.8531468531468" y2="346.8531468531468"></line><line x1="40" x2="83" y1="320.2797202797203" y2="320.2797202797203"></line><line x1="40" x2="83" y1="293.7062937062937" y2="293.7062937062937"></line><line x1="40" x2="83" y1="267.1328671328671" y2="267.1328671328671"></line><line x1="40" x2="83" y1="240.55944055944056" y2="240.55944055944056"></line><line x1="40" x2="83" y1="213.98601398601394" y2="213.98601398601394"></line><line x1="40" x2="83" y1="187.4125874125874" y2="187.4125874125874"></line><line x1="40" x2="83" y1="160.83916083916083" y2="160.83916083916083"></line><line x1="40" x2="83" y1="134.26573426573424" y2="134.26573426573424"></line><line x1="40" x2="83" y1="107.69230769230768" y2="107.69230769230768"></line><line x1="40" x2="83" y1="81.11888111888108" y2="81.11888111888108"></line><line x1="40" x2="83" y1="54.54545454545452" y2="54.54545454545452"></line><line x1="40" x2="83" y1="27.972027972027952" y2="27.972027972027952"></line></g><g stroke="currentColor" stroke-opacity="0.1" transform="translate(388,0)"><line x1="40" x2="83" y1="400" y2="400"></line><line x1="40" x2="83" y1="373.42657342657344" y2="373.42657342657344"></line><line x1="40" x2="83" y1="346.8531468531468" y2="346.8531468531468"></line><line x1="40" x2="83" y1="320.2797202797203" y2="320.2797202797203"></line><line x1="40" x2="83" y1="293.7062937062937" y2="293.7062937062937"></line><line x1="40" x2="83" y1="267.1328671328671" y2="267.1328671328671"></line><line x1="40" x2="83" y1="240.55944055944056" y2="240.55944055944056"></line><line x1="40" x2="83" y1="213.98601398601394" y2="213.98601398601394"></line><line x1="40" x2="83" y1="187.4125874125874" y2="187.4125874125874"></line><line x1="40" x2="83" y1="160.83916083916083" y2="160.83916083916083"></line><line x1="40" x2="83" y1="134.26573426573424" y2="134.26573426573424"></line><line x1="40" x2="83" y1="107.69230769230768" y2="107.69230769230768"></line><line x1="40" x2="83" y1="81.11888111888108" y2="81.11888111888108"></line><line x1="40" x2="83" y1="54.54545454545452" y2="54.54545454545452"></line><line x1="40" x2="83" y1="27.972027972027952" y2="27.972027972027952"></line></g><g stroke="currentColor" stroke-opacity="0.1" transform="translate(436,0)"><line x1="40" x2="83" y1="400" y2="400"></line><line x1="40" x2="83" y1="373.42657342657344" y2="373.42657342657344"></line><line x1="40" x2="83" y1="346.8531468531468" y2="346.8531468531468"></line><line x1="40" x2="83" y1="320.2797202797203" y2="320.2797202797203"></line><line x1="40" x2="83" y1="293.7062937062937" y2="293.7062937062937"></line><line x1="40" x2="83" y1="267.1328671328671" y2="267.1328671328671"></line><line x1="40" x2="83" y1="240.55944055944056" y2="240.55944055944056"></line><line x1="40" x2="83" y1="213.98601398601394" y2="213.98601398601394"></line><line x1="40" x2="83" y1="187.4125874125874" y2="187.4125874125874"></line><line x1="40" x2="83" y1="160.83916083916083" y2="160.83916083916083"></line><line x1="40" x2="83" y1="134.26573426573424" y2="134.26573426573424"></line><line x1="40" x2="83" y1="107.69230769230768" y2="107.69230769230768"></line><line x1="40" x2="83" y1="81.11888111888108" y2="81.11888111888108"></line><line x1="40" x2="83" y1="54.54545454545452" y2="54.54545454545452"></line><line x1="40" x2="83" y1="27.972027972027952" y2="27.972027972027952"></line></g><g stroke="currentColor" stroke-opacity="0.1" transform="translate(484,0)"><line x1="40" x2="83" y1="400" y2="400"></line><line x1="40" x2="83" y1="373.42657342657344" y2="373.42657342657344"></line><line x1="40" x2="83" y1="346.8531468531468" y2="346.8531468531468"></line><line x1="40" x2="83" y1="320.2797202797203" y2="320.2797202797203"></line><line x1="40" x2="83" y1="293.7062937062937" y2="293.7062937062937"></line><line x1="40" x2="83" y1="267.1328671328671" y2="267.1328671328671"></line><line x1="40" x2="83" y1="240.55944055944056" y2="240.55944055944056"></line><line x1="40" x2="83" y1="213.98601398601394" y2="213.98601398601394"></line><line x1="40" x2="83" y1="187.4125874125874" y2="187.4125874125874"></line><line x1="40" x2="83" y1="160.83916083916083" y2="160.83916083916083"></line><line x1="40" x2="83" y1="134.26573426573424" y2="134.26573426573424"></line><line x1="40" x2="83" y1="107.69230769230768" y2="107.69230769230768"></line><line x1="40" x2="83" y1="81.11888111888108" y2="81.11888111888108"></line><line x1="40" x2="83" y1="54.54545454545452" y2="54.54545454545452"></line><line x1="40" x2="83" y1="27.972027972027952" y2="27.972027972027952"></line></g><g stroke="currentColor" stroke-opacity="0.1" transform="translate(532,0)"><line x1="40" x2="83" y1="400" y2="400"></line><line x1="40" x2="83" y1="373.42657342657344" y2="373.42657342657344"></line><line x1="40" x2="83" y1="346.8531468531468" y2="346.8531468531468"></line><line x1="40" x2="83" y1="320.2797202797203" y2="320.2797202797203"></line><line x1="40" x2="83" y1="293.7062937062937" y2="293.7062937062937"></line><line x1="40" x2="83" y1="267.1328671328671" y2="267.1328671328671"></line><line x1="40" x2="83" y1="240.55944055944056" y2="240.55944055944056"></line><line x1="40" x2="83" y1="213.98601398601394" y2="213.98601398601394"></line><line x1="40" x2="83" y1="187.4125874125874" y2="187.4125874125874"></line><line x1="40" x2="83" y1="160.83916083916083" y2="160.83916083916083"></line><line x1="40" x2="83" y1="134.26573426573424" y2="134.26573426573424"></line><line x1="40" x2="83" y1="107.69230769230768" y2="107.69230769230768"></line><line x1="40" x2="83" y1="81.11888111888108" y2="81.11888111888108"></line><line x1="40" x2="83" y1="54.54545454545452" y2="54.54545454545452"></line><line x1="40" x2="83" y1="27.972027972027952" y2="27.972027972027952"></line></g></g><g aria-label="y-axis tick" aria-hidden="true" transform="translate(0,0.5)"><g fill="none" stroke="currentColor" transform="translate(4,0)"><path transform="translate(40,400)" d="M0,0L-6,0"></path><path transform="translate(40,373.42657342657344)" d="M0,0L-6,0"></path><path transform="translate(40,346.8531468531468)" d="M0,0L-6,0"></path><path transform="translate(40,320.2797202797203)" d="M0,0L-6,0"></path><path transform="translate(40,293.7062937062937)" d="M0,0L-6,0"></path><path transform="translate(40,267.1328671328671)" d="M0,0L-6,0"></path><path transform="translate(40,240.55944055944056)" d="M0,0L-6,0"></path><path transform="translate(40,213.98601398601394)" d="M0,0L-6,0"></path><path transform="translate(40,187.4125874125874)" d="M0,0L-6,0"></path><path transform="translate(40,160.83916083916083)" d="M0,0L-6,0"></path><path transform="translate(40,134.26573426573424)" d="M0,0L-6,0"></path><path transform="translate(40,107.69230769230768)" d="M0,0L-6,0"></path><path transform="translate(40,81.11888111888108)" d="M0,0L-6,0"></path><path transform="translate(40,54.54545454545452)" d="M0,0L-6,0"></path><path transform="translate(40,27.972027972027952)" d="M0,0L-6,0"></path></g></g><g aria-label="y-axis tick label" transform="translate(-8.5,0.5)"><g text-anchor="end" font-variant="tabular-nums" transform="translate(4,0)"><text y="0.32em" transform="translate(40,400)">0</text><text y="0.32em" transform="translate(40,373.42657342657344)">2</text><text y="0.32em" transform="translate(40,346.8531468531468)">4</text><text y="0.32em" transform="translate(40,320.2797202797203)">6</text><text y="0.32em" transform="translate(40,293.7062937062937)">8</text><text y="0.32em" transform="translate(40,267.1328671328671)">10</text><text y="0.32em" transform="translate(40,240.55944055944056)">12</text><text y="0.32em" transform="translate(40,213.98601398601394)">14</text><text y="0.32em" transform="translate(40,187.4125874125874)">16</text><text y="0.32em" transform="translate(40,160.83916083916083)">18</text><text y="0.32em" transform="translate(40,134.26573426573424)">20</text><text y="0.32em" transform="translate(40,107.69230769230768)">22</text><text y="0.32em" transform="translate(40,81.11888111888108)">24</text><text y="0.32em" transform="translate(40,54.54545454545452)">26</text><text y="0.32em" transform="translate(40,27.972027972027952)">28</text></g></g><g aria-label="bar"><g transform="translate(4,0)"><rect x="43" width="18" y="103.70629370629368" height="296.29370629370635" fill="#ffe7a6"></rect><rect x="63" width="18" y="64.84111952861946" height="335.15888047138054" fill="#fabe19"></rect></g><g transform="translate(52,0)"><rect x="43" width="18" y="20" height="380" fill="#8bccad"></rect><rect x="63" width="18" y="176.632511007511" height="223.367488992489" fill="#02ad5b"></rect></g><g transform="translate(100,0)"><rect x="43" width="18" y="349.5104895104895" height="50.48951048951051" fill="#c97569"></rect><rect x="63" width="18" y="177.14767871017867" height="222.85232128982133" fill="#cb1a01"></rect></g><g transform="translate(148,0)"><rect x="43" width="18" y="147.55244755244752" height="252.44755244755248" fill="#606794"></rect><rect x="63" width="18" y="250.07850945350947" height="149.92149054649053" fill="#29347e"></rect></g><g transform="translate(196,0)"><rect x="43" width="18" y="213.98601398601394" height="186.01398601398606" fill="#f2a474"></rect><rect x="63" width="18" y="276.4750874125874" height="123.52491258741259" fill="#ff6000"></rect></g><g transform="translate(244,0)"><rect x="43" width="18" y="357.4825174825175" height="42.517482517482506" fill="#de8f8a"></rect><rect x="63" width="18" y="283.7489478114478" height="116.2510521885522" fill="#ef4135"></rect></g><g transform="translate(292,0)"><rect x="43" width="18" y="314.965034965035" height="85.03496503496501" fill="#dbc87b"></rect><rect x="63" width="18" y="285.8941983941984" height="114.10580160580162" fill="#ffcc00"></rect></g><g transform="translate(340,0)"><rect x="63" width="18" y="384.53727984977985" height="15.46272015022015" fill="#df0cb9"></rect></g><g transform="translate(388,0)"><rect x="63" width="18" y="390.0964775964776" height="9.903522403522402" fill="#8f8f8f"></rect></g><g transform="translate(436,0)"><rect x="63" width="18" y="392.7799630924631" height="7.220036907536894" fill="#8f8f8f"></rect></g><g transform="translate(484,0)"><rect x="43" width="18" y="380.06993006993" height="19.930069930069976" fill="#c3c3c3"></rect><rect x="63" width="18" y="393.4181559181559" height="6.58184408184411" fill="#8f8f8f"></rect></g><g transform="translate(532,0)"><rect x="63" width="18" y="395.47882672882673" height="4.521173271173268" fill="#b32d00"></rect></g></g><g aria-label="image" transform="translate(0.5,0.5)"><g transform="translate(4,0)"><image opacity="0.75" x="46.5" y="345.1398601398601" width="30" height="30" href="https://english.n-va.be/sites/international.n-va.be/files/generated/files/page-attachment/logo_nva_verandering-werkt_z_0.jpg"></image><image opacity="0.75" x="46.5" y="345.1398601398601" width="30" height="30" href="https://english.n-va.be/sites/international.n-va.be/files/generated/files/page-attachment/logo_nva_verandering-werkt_z_0.jpg"></image></g><g transform="translate(52,0)"><image opacity="0.75" x="46.5" y="345.1398601398601" width="30" height="30" href="https://assets.nationbuilder.com/groen/pages/15646/attachments/original/1661256240/Logo_fullcolor.png?1661256240"></image><image opacity="0.75" x="46.5" y="345.1398601398601" width="30" height="30" href="https://assets.nationbuilder.com/groen/pages/15646/attachments/original/1661256240/Logo_fullcolor.png?1661256240"></image></g><g transform="translate(100,0)"><image opacity="0.75" x="46.5" y="345.1398601398601" width="30" height="30" href="https://assets.nationbuilder.com/vooruit/sites/3/meta_images/original/Vooruit_thumbnail.jpg?1619535283"></image><image opacity="0.75" x="46.5" y="345.1398601398601" width="30" height="30" href="https://assets.nationbuilder.com/vooruit/sites/3/meta_images/original/Vooruit_thumbnail.jpg?1619535283"></image></g><g transform="translate(148,0)"><image opacity="0.75" x="46.5" y="345.1398601398601" width="30" height="30" href="https://assets.nationbuilder.com/openvld/pages/68/attachments/original/1698034850/logonieuw-light-logo.png?1698034850"></image><image opacity="0.75" x="46.5" y="345.1398601398601" width="30" height="30" href="https://assets.nationbuilder.com/openvld/pages/68/attachments/original/1698034850/logonieuw-light-logo.png?1698034850"></image></g><g transform="translate(196,0)"><image opacity="0.75" x="46.5" y="345.1398601398601" width="30" height="30" href="https://www.cdenvwevelgem.be/sites/cdvwevelgem/files/styles/colorbox_large__1200x1200/public/t_is_beslist_1080x1080_3_0.png?itok=VwiNS9Qw"></image><image opacity="0.75" x="46.5" y="345.1398601398601" width="30" height="30" href="https://www.cdenvwevelgem.be/sites/cdvwevelgem/files/styles/colorbox_large__1200x1200/public/t_is_beslist_1080x1080_3_0.png?itok=VwiNS9Qw"></image></g><g transform="translate(244,0)"><image opacity="0.75" x="46.5" y="345.1398601398601" width="30" height="30" href="https://www.pvdashop.be/cdn/shop/files/PVDA-logo-LARGE-rgb-1_300x300.png?v=1638700063"></image><image opacity="0.75" x="46.5" y="345.1398601398601" width="30" height="30" href="https://www.pvdashop.be/cdn/shop/files/PVDA-logo-LARGE-rgb-1_300x300.png?v=1638700063"></image></g><g transform="translate(292,0)"><image opacity="0.75" x="46.5" y="345.1398601398601" width="30" height="30" href="https://www.vlaamsbelangwinkel.org/cdn/shop/files/LOGO_420x200_f1922b23-85a4-4931-927b-6ca468421e2f_600x.png?v=1630921475"></image><image opacity="0.75" x="46.5" y="345.1398601398601" width="30" height="30" href="https://www.vlaamsbelangwinkel.org/cdn/shop/files/LOGO_420x200_f1922b23-85a4-4931-927b-6ca468421e2f_600x.png?v=1630921475"></image></g><g transform="translate(340,0)"><image opacity="0.75" x="46.5" y="345.1398601398601" width="30" height="30" href="https://static.wixstatic.com/media/82fb7d_0931497fc86c4e03897061307239f0fd~mv2.jpg/v1/fit/w_2500,h_1330,al_c/82fb7d_0931497fc86c4e03897061307239f0fd~mv2.jpg"></image></g><g transform="translate(532,0)"><image opacity="0.75" x="46.5" y="345.1398601398601" width="30" height="30" href="https://blanco2024.be/wp-content/uploads/2023/04/logo-blanco-11-04-2023.png"></image></g></g><g aria-label="text" transform="translate(9.5,-7.5)"><g stroke="white" stroke-width="3" stroke-linejoin="round" paint-order="stroke" text-anchor="center" transform="translate(4,0)"><text y="0.32em" transform="translate(43,103.70629370629368)" font-size="11" fill="#808080">22.3 %</text><text y="0.32em" transform="translate(63,64.84111952861946)" font-size="14" fill="#000000">25.2 %</text></g><g stroke="white" stroke-width="3" stroke-linejoin="round" paint-order="stroke" text-anchor="center" transform="translate(52,0)"><text y="0.32em" transform="translate(43,20)" font-size="11" fill="#808080">28.6 %</text><text y="0.32em" transform="translate(63,176.632511007511)" font-size="14" fill="#000000">16.8 %</text></g><g stroke="white" stroke-width="3" stroke-linejoin="round" paint-order="stroke" text-anchor="center" transform="translate(100,0)"><text y="0.32em" transform="translate(43,349.5104895104895)" font-size="11" fill="#808080">3.8 %</text><text y="0.32em" transform="translate(63,177.14767871017867)" font-size="14" fill="#000000">16.8 %</text></g><g stroke="white" stroke-width="3" stroke-linejoin="round" paint-order="stroke" text-anchor="center" transform="translate(148,0)"><text y="0.32em" transform="translate(43,147.55244755244752)" font-size="11" fill="#808080">19 %</text><text y="0.32em" transform="translate(63,250.07850945350947)" font-size="14" fill="#000000">11.3 %</text></g><g stroke="white" stroke-width="3" stroke-linejoin="round" paint-order="stroke" text-anchor="center" transform="translate(196,0)"><text y="0.32em" transform="translate(43,213.98601398601394)" font-size="11" fill="#808080">14 %</text><text y="0.32em" transform="translate(63,276.4750874125874)" font-size="14" fill="#000000">9.3 %</text></g><g stroke="white" stroke-width="3" stroke-linejoin="round" paint-order="stroke" text-anchor="center" transform="translate(244,0)"><text y="0.32em" transform="translate(43,357.4825174825175)" font-size="11" fill="#808080">3.2 %</text><text y="0.32em" transform="translate(63,283.7489478114478)" font-size="14" fill="#000000">8.7 %</text></g><g stroke="white" stroke-width="3" stroke-linejoin="round" paint-order="stroke" text-anchor="center" transform="translate(292,0)"><text y="0.32em" transform="translate(43,314.965034965035)" font-size="11" fill="#808080">6.4 %</text><text y="0.32em" transform="translate(63,285.8941983941984)" font-size="14" fill="#000000">8.6 %</text></g><g stroke="white" stroke-width="3" stroke-linejoin="round" paint-order="stroke" text-anchor="center" transform="translate(340,0)"><text y="0.32em" transform="translate(63,384.53727984977985)" font-size="14" fill="#000000">1.2 %</text></g><g stroke="white" stroke-width="3" stroke-linejoin="round" paint-order="stroke" text-anchor="center" transform="translate(388,0)"><text y="0.32em" transform="translate(63,390.0964775964776)" font-size="14" fill="#000000">0.7 %</text></g><g stroke="white" stroke-width="3" stroke-linejoin="round" paint-order="stroke" text-anchor="center" transform="translate(436,0)"><text y="0.32em" transform="translate(63,392.7799630924631)" font-size="14" fill="#000000">0.5 %</text></g><g stroke="white" stroke-width="3" stroke-linejoin="round" paint-order="stroke" text-anchor="center" transform="translate(484,0)"><text y="0.32em" transform="translate(43,380.06993006993)" font-size="11" fill="#808080">1.5 %</text><text y="0.32em" transform="translate(63,393.4181559181559)" font-size="14" fill="#000000">0.5 %</text></g><g stroke="white" stroke-width="3" stroke-linejoin="round" paint-order="stroke" text-anchor="center" transform="translate(532,0)"><text y="0.32em" transform="translate(63,395.47882672882673)" font-size="14" fill="#000000">0.3 %</text></g></g><g aria-label="tip" transform="translate(9.5,0.5)"><g fill="var(--plot-background)" fill-opacity="0.9" stroke="currentColor" pointer-events="none" text-anchor="start" transform="translate(4,0)"></g><g fill="var(--plot-background)" fill-opacity="0.9" stroke="currentColor" pointer-events="none" text-anchor="start" transform="translate(52,0)"></g><g fill="var(--plot-background)" fill-opacity="0.9" stroke="currentColor" pointer-events="none" text-anchor="start" transform="translate(100,0)"></g><g fill="var(--plot-background)" fill-opacity="0.9" stroke="currentColor" pointer-events="none" text-anchor="start" transform="translate(148,0)"></g><g fill="var(--plot-background)" fill-opacity="0.9" stroke="currentColor" pointer-events="none" text-anchor="start" transform="translate(196,0)"></g><g fill="var(--plot-background)" fill-opacity="0.9" stroke="currentColor" pointer-events="none" text-anchor="start" transform="translate(244,0)"></g><g fill="var(--plot-background)" fill-opacity="0.9" stroke="currentColor" pointer-events="none" text-anchor="start" transform="translate(292,0)"></g><g fill="var(--plot-background)" fill-opacity="0.9" stroke="currentColor" pointer-events="none" text-anchor="start" transform="translate(340,0)"></g><g fill="var(--plot-background)" fill-opacity="0.9" stroke="currentColor" pointer-events="none" text-anchor="start" transform="translate(388,0)"></g><g fill="var(--plot-background)" fill-opacity="0.9" stroke="currentColor" pointer-events="none" text-anchor="start" transform="translate(436,0)"></g><g fill="var(--plot-background)" fill-opacity="0.9" stroke="currentColor" pointer-events="none" text-anchor="start" transform="translate(484,0)"></g><g fill="var(--plot-background)" fill-opacity="0.9" stroke="currentColor" pointer-events="none" text-anchor="start" transform="translate(532,0)"></g></g></svg>